<svg width="750" height="502" viewBox="0 0 750 502" fill="none" xmlns="http://www.w3.org/2000/svg">
<mask id="mask0_180_8282" style="mask-type:luminance" maskUnits="userSpaceOnUse" x="0" y="0" width="750" height="502">
<path d="M750 0H0V502H750V0Z" fill="white"/>
</mask>
<g mask="url(#mask0_180_8282)">
<path d="M-12.8179 183.785C-4.49034 174.084 5.62453 169.499 15.4979 170.948C19.9662 171.603 24.4891 173.547 28.1906 178.123C38.4359 190.787 38.8061 217.196 39.3058 239.62C39.8055 262.044 43.8534 289.401 55.9724 294.239C64.6454 297.702 74.3011 287.442 82.2638 294.56C92.5232 303.731 90.5076 330.931 94.938 350.012C101.513 378.33 121.917 385.59 138.85 383.21C155.784 380.829 173.757 373.19 189.085 386.419C199.215 395.162 206.61 412.117 211.255 430.595C215.9 449.074 218.097 469.203 220.258 489.122C158.385 504.799 96.1163 512.008 33.6424 510.682C17.6078 510.341 -0.572887 507.61 -10.5935 484.972C-16.567 471.476 -18.2882 453.533 -19.4516 436.374C-25.0144 354.337 -23.5179 264.137 -12.8179 183.785Z" fill="#DDD5C5"/>
<path d="M206.854 -9.65866C216.273 10.0468 231.899 22.2064 247.69 22.1187C268.237 22.004 287.59 2.61405 308.064 5.32485C315.426 6.30016 322.62 10.2014 328.774 16.5553C339.305 27.4288 346.653 45.096 357.942 53.9392C367.493 61.4198 379.31 61.4708 388.887 54.073C397.484 47.4307 403.9 35.5994 411.752 27.0112C419.603 18.4231 430.645 13.4015 438.584 21.792C441.159 24.5124 443.135 28.3866 445.56 31.4209C456.069 44.5733 472.611 38.2768 482.111 23.3841C491.612 8.48985 495.82 -12.4603 499.706 -32.5467C482.01 -48.3382 461.652 -58.1264 441.515 -63.2308C423.934 -67.6883 406.275 -71.3967 388.564 -74.3529C361.629 -78.8486 334.404 -81.6008 307.471 -77.0589C280.538 -72.517 253.758 -60.3766 231.198 -37.0567C222.596 -28.1657 216.95 -13.0547 206.854 -9.65866Z" fill="#DDD5C5"/>
<path d="M685.615 528.923C682.155 532.486 680.49 539.757 677.765 545.006C669.356 561.21 651.048 573.776 639.588 580.492C622.193 590.685 603.856 596.231 585.543 594.5C565.542 592.612 527.626 579.271 518.806 540.636C510.085 502.43 520.875 440.718 543.81 428.053C549.398 424.967 555.391 424.803 560.95 421.551C583.844 408.154 589.245 352.021 608.924 326.982C613.076 321.699 617.997 317.866 623.07 318.156C626.759 318.367 630.297 320.717 633.929 321.932C660.602 330.843 664.185 285.026 679.52 257.911C691.267 237.145 710.477 231.736 725.158 245.062C736.864 255.687 745.863 276.812 758.789 280.632C762.539 320.661 755.896 360.45 746.791 397.561C737.687 434.674 724.503 467.99 710.917 500.314C699.725 526.945 685.667 555.5 667.17 556.048" fill="#DDD5C5"/>
<path d="M487.184 -14.5727C477.372 2.94944 481.952 38.4098 495.041 46.2601C500.232 49.3725 505.867 48.5709 511.302 47.4729C527.264 44.2521 543.089 38.7906 558.585 31.1539C570.218 25.4215 584.854 20.0095 592.508 36.856C596.632 45.9334 597.084 58.7017 600.028 69.1752C607.143 94.4808 626.255 99.2809 641.661 93.8067C657.065 88.3325 672.166 75.8972 687.773 78.9698C690.929 79.5913 694.149 80.9331 696.702 84.3452C701.335 90.5349 702.689 101.799 703.671 112.062C705.914 135.503 709.448 162.697 721.471 172.355C729.122 178.5 738.327 175.158 745.416 167.103C752.506 159.049 757.835 146.872 762.644 134.48C773.657 106.106 782.731 75.2757 789.594 42.9102C795.106 16.9178 785.45 -19.4143 773.447 -36.8472C768.576 -43.923 762.537 -47.7494 756.581 -51.1582C729.71 -66.5369 701.809 -76.0176 673.684 -79.3276C636.993 -83.6448 600.187 -77.4901 563.644 -70.1322C547.156 -66.8126 530.634 -63.2301 514.524 -56.0746C500.962 -50.0554 497.12 -32.318 487.184 -14.5727Z" fill="#E2A40A"/>
<path d="M-7.93349 247.503C9.32268 248.991 23.9023 224.352 33.3006 198.141C42.699 171.93 49.5019 141.882 62.3391 120.976C64.1961 117.953 66.2275 115.089 68.6211 113.792C70.4155 112.82 72.3271 112.777 74.1435 111.947C79.6482 109.434 83.3391 100.363 86.5577 91.905C93.5571 73.5159 100.557 55.1267 107.558 36.7376C110.952 27.8211 114.481 18.664 119.525 12.8344C124.569 7.00486 131.57 5.30443 136.41 11.6743C139.3 15.4767 141.004 21.4736 143.267 26.4745C153.589 49.2796 174.365 47.1139 187.571 29.8403C200.775 12.5683 208.247 -15.2393 215.202 -41.8915C200.098 -67.3565 178.896 -74.5757 158.286 -76.955C113.128 -82.1679 68.2774 -63.6433 24.187 -45.2414C16.2313 -41.9218 7.98837 -38.3584 1.58296 -29.2029C-9.80981 -12.9206 -12.3233 16.0249 -13.7114 42.164C-17.026 104.551 -18.6988 167.224 -18.7217 229.898" fill="#EF6359"/>
<path d="M85.8218 443.142C102.914 450.803 120.394 436.777 136.657 424.565C152.92 412.353 171.752 401.763 187.62 415.569C196.303 423.123 203.351 437.537 212.871 440.211C226.12 443.933 238.721 423.373 251.971 427.086C261.406 429.73 268.331 443.796 275.825 454.494C286.295 469.441 299.184 478.776 312.465 481.031C319.855 482.287 327.465 481.442 334.531 485.557C341.596 489.674 348.215 500.703 347.96 514.119C347.732 526.146 341.977 535.932 335.65 539.668C329.323 543.403 322.486 542.431 315.844 541.67C209.27 529.446 102.241 582.128 -3.85652 560.194C-8.90293 559.15 -14.3671 557.56 -17.843 550.862C-28.2628 530.782 -21.8133 469.525 -19.6391 444.914C-17.4253 419.859 -12.6847 393.251 0.89642 381.257C34.4948 351.582 57.3015 430.359 85.8218 443.142Z" fill="#408C76"/>
<path d="M438.44 509.448C454.811 481.644 476.04 463.336 498.293 457.83C524.835 451.262 552.188 462.466 578.463 453.015C591.282 448.405 603.554 438.877 614.23 425.243C630.926 403.921 643.293 373.4 658.676 349.065C664.937 339.162 672.042 330.019 680.253 327.617C685.792 325.998 691.491 327.562 697.048 326.158C707.239 323.584 715.85 311.41 723.254 298.49C730.658 285.571 737.582 271.217 746.618 262.313C755.653 253.409 767.667 251.197 775.75 262.708C785.456 334.827 781.071 407.345 778.446 481.417C778.134 490.213 777.77 499.338 775.405 507.045C772.045 517.993 765.364 523.93 759.085 529.209C749.535 537.24 739.953 545.291 729.918 551.073C687.264 575.645 641.196 557.27 596.432 556.429C580.306 556.126 564.189 558.137 548.062 557.9C508.545 557.32 475.052 536.347 438.44 509.448Z" fill="#87B2A2"/>
</g>
<mask id="mask1_180_8282" style="mask-type:luminance" maskUnits="userSpaceOnUse" x="0" y="0" width="750" height="502">
<path d="M750 0H0V502H750V0Z" fill="white"/>
</mask>
<g mask="url(#mask1_180_8282)">
<path d="M373.829 495.861C370.805 514.199 374.656 536.563 385.414 545.954C390.886 550.731 397.361 552.543 403.099 548.93C421.167 537.554 421.172 491.088 405.583 474.221C393.636 461.293 377.838 471.548 373.829 495.861Z" fill="#DDD5C5"/>
</g>
<path d="M627.156 145.83C621.397 146.309 616.597 151.065 612.354 155.728C603.67 165.276 605.196 178.069 606.99 190.908C607.728 196.194 609.112 201.681 607.522 206.936C606.926 208.907 605.923 210.695 605.482 212.725C605.041 214.753 605.349 217.259 606.843 218.365C609.567 220.384 614.177 216.909 617.404 218.01C622.608 219.783 627.733 222.571 632.821 224.791C635.948 226.155 639.137 227.536 642.464 227.7C648.25 227.987 653.674 224.602 658.674 221.124" fill="#E2A40A"/>
<path d="M629.617 197.308C635.115 207.191 642.592 216.169 652.13 219.557C656.086 220.963 660.632 221.258 664.102 218.593C668.121 215.503 669.458 209.202 669.702 203.824C670.668 182.559 661.534 157.87 645.084 148.077C635.446 142.34 618.965 139.083 619.403 158.055C619.713 171.514 623.375 186.089 629.617 197.308Z" fill="#F3EDDE"/>
<path d="M633.155 194.848C637.992 203.54 644.567 211.439 652.957 214.419C656.437 215.656 660.436 215.916 663.488 213.571C667.023 210.853 668.75 205.301 668.414 200.581C667.415 186.534 655.76 163.816 645.164 152.457C638.12 144.906 623.785 143.632 624.169 160.32C624.443 172.159 627.664 184.981 633.155 194.848Z" fill="#EFB93F"/>
<path d="M637.463 144.438C640.564 156.527 642.666 168.709 645.769 180.798C637.71 173.22 630.117 164.939 623.071 156.042" stroke="#F3EDDE" stroke-width="2" stroke-miterlimit="10" stroke-linecap="round" stroke-linejoin="round"/>
<path d="M647.579 215.981C647.994 204.323 647.583 192.623 646.352 181.045C654.666 192.314 662.379 203.306 670.996 214.247" stroke="#F3EDDE" stroke-width="2" stroke-miterlimit="10" stroke-linecap="round" stroke-linejoin="round"/>
<path d="M651.795 157.472C649.446 165.156 647.587 173.051 646.242 181.071C652.868 181.45 659.459 181.862 665.984 183.292" stroke="#F3EDDE" stroke-width="2" stroke-miterlimit="10" stroke-linecap="round" stroke-linejoin="round"/>
<path d="M625.065 176.27C631.909 178.187 638.863 179.542 645.862 180.323C642.138 185.695 637.66 191.753 633.936 197.125" stroke="#F3EDDE" stroke-width="2" stroke-miterlimit="10" stroke-linecap="round" stroke-linejoin="round"/>
<path d="M622.444 191.649C625.651 199.67 630.294 206.87 635.972 212.631" stroke="#B56B00" stroke-width="2" stroke-miterlimit="10" stroke-linecap="round" stroke-linejoin="round"/>
<path d="M609.822 178.718C609.407 179.117 608.819 179.2 608.349 178.572C607.41 177.319 608.975 175.157 610.033 176.54C610.583 177.257 610.333 178.227 609.822 178.718Z" fill="#B56B00"/>
<path d="M617.24 182.504C616.825 182.903 616.236 182.987 615.766 182.358C614.827 181.105 616.392 178.943 617.451 180.326C618.001 181.043 617.751 182.013 617.24 182.504Z" fill="#B56B00"/>
<path d="M611.412 189.446C610.997 189.845 610.409 189.928 609.938 189.3C608.999 188.047 610.564 185.885 611.623 187.268C612.173 187.985 611.923 188.955 611.412 189.446Z" fill="#B56B00"/>
<path d="M283.781 289.833C282.484 284.265 281.69 277.269 280.866 271.575C282.95 272.004 284.875 272.154 286.99 272.17C287.779 277.384 288.756 282.671 289.546 287.884" fill="#152C1A"/>
<path d="M336.448 349.112C337.831 359.292 336.211 370.289 332.051 379.42C324.241 396.566 303.066 404.927 287.851 399.021C271.378 392.629 263.229 371.514 266.275 351.877C267.7 342.685 270.833 334.009 273.064 325.047C275.361 315.82 274.439 308.236 274.815 299.035C275.082 292.479 279.522 286.085 284.768 284.311C292.139 281.82 296.733 286.462 299.587 293.702C302.827 301.923 307.612 309.286 313.491 315.069C318.518 320.016 324.351 323.855 328.759 329.578C332.956 335.028 335.464 341.862 336.448 349.112Z" fill="#848A3B"/>
<path d="M279.952 387.721C285.722 393.293 293.068 396.506 300.493 396.707" stroke="#545615" stroke-width="2" stroke-miterlimit="10" stroke-linecap="round" stroke-linejoin="round"/>
<path d="M306.879 395.978C308.44 395.431 310.002 394.885 311.565 394.338" stroke="#545615" stroke-width="2" stroke-miterlimit="10" stroke-linecap="round" stroke-linejoin="round"/>
<path d="M286.297 288.218C290.336 287.809 294.479 290.495 296.385 294.756" stroke="#545615" stroke-width="2" stroke-miterlimit="10" stroke-linecap="round" stroke-linejoin="round"/>
<path d="M170.088 211.717C170.134 195.473 173.44 172.935 178.567 157.883C180.722 157.741 182.855 157.845 184.735 159.104C179.913 175.982 177.303 194.519 177.715 212.342" fill="#408C76"/>
<path d="M177.607 212.333C178.377 192.275 178.047 166.246 175.948 146.323C173.934 146.405 170.919 145.998 168.906 146.08C171.935 166.068 171.309 191.467 170.649 211.764" fill="#26725A"/>
<path d="M177.003 212.283C173.719 195.074 169.727 171.89 164.354 155.443C162.906 155.854 160.528 156.338 159.08 156.748C163.969 172.784 166.558 195.26 170.278 211.733" fill="#408C76"/>
<path d="M177.047 210.79C182.885 214.415 188.723 218.04 194.561 221.663C197.375 223.411 200.249 225.21 202.416 227.973C206.714 233.452 207.446 241.701 206.698 249.147C205.885 257.234 203.218 265.672 197.46 270.065C194.401 272.397 190.761 273.368 187.176 274.062C182.357 274.996 177.479 275.506 172.597 275.588L168.171 275.226C163.344 274.348 158.572 273.047 153.905 271.337C150.433 270.065 146.939 268.511 144.177 265.701C138.978 260.412 137.305 251.619 137.429 243.475C137.543 235.977 139.217 227.925 144.105 223.198C146.569 220.815 149.622 219.501 152.61 218.229C158.949 215.531 164.107 212.885 170.082 210.203" fill="#8F496A"/>
<path d="M155.601 267.372C151.529 262.753 149 256.254 148.672 249.566C148.345 242.88 150.22 236.074 153.814 230.921C155.744 228.152 158.119 225.879 160.476 223.627C163.68 220.566 166.886 217.505 170.09 214.444" stroke="#6B264A" stroke-width="2" stroke-miterlimit="10" stroke-linecap="round" stroke-linejoin="round"/>
<path d="M170.025 272.72C163.218 253.498 166.431 231.293 172.362 211.664" stroke="#6B264A" stroke-width="2" stroke-miterlimit="10" stroke-linecap="round" stroke-linejoin="round"/>
<path d="M174.133 213.124C179.783 218.494 185.432 223.864 191.082 229.235C193.161 231.211 195.283 233.244 196.663 235.952C198.637 239.825 198.854 244.61 198.571 249.128C198.316 253.21 197.67 257.349 195.966 260.901C194.261 264.456 191.356 267.366 187.954 267.935" stroke="#6B264A" stroke-width="2" stroke-miterlimit="10" stroke-linecap="round" stroke-linejoin="round"/>
<path d="M172.457 212.366C183.002 227.913 186.364 249.965 181.081 268.935" stroke="#6B264A" stroke-width="2" stroke-miterlimit="10" stroke-linecap="round" stroke-linejoin="round"/>
<path d="M142.579 246.56C142.579 241.943 143.585 237.332 145.473 233.3" stroke="#6B264A" stroke-width="2" stroke-miterlimit="10" stroke-linecap="round" stroke-linejoin="round"/>
<path d="M177.68 239.321C178.552 242.886 178.828 246.654 178.486 250.343" stroke="#6B264A" stroke-width="2" stroke-miterlimit="10" stroke-linecap="round" stroke-linejoin="round"/>
<path d="M193.367 225.423C196.072 227.868 198.777 230.313 201.482 232.758" stroke="#6B264A" stroke-width="2" stroke-miterlimit="10" stroke-linecap="round" stroke-linejoin="round"/>
<path d="M167.501 284.022C168.717 280.948 169.933 277.874 171.149 274.8" stroke="#441530" stroke-width="2" stroke-miterlimit="10" stroke-linecap="round" stroke-linejoin="round"/>
<path d="M170.4 274.68C171.465 279.437 172.529 284.195 173.593 288.952" stroke="#441530" stroke-width="2" stroke-miterlimit="10" stroke-linecap="round" stroke-linejoin="round"/>
<path d="M171.656 276.193C173.724 277.569 175.791 278.946 177.859 280.321" stroke="#441530" stroke-width="2" stroke-miterlimit="10" stroke-linecap="round" stroke-linejoin="round"/>
<path d="M242.042 180.935C240.373 183.425 238.964 186.147 237.99 189.144C234.314 200.437 239.064 213.264 246.856 221.147C248.083 222.388 249.413 223.485 250.576 224.81C253.023 227.596 253.882 232.536 256.449 234.881C260.043 238.167 261.894 234.088 263.751 231.054C265.371 228.407 267.921 224.327 270.314 222.715C276.477 218.564 279.178 214.163 280.97 206.004C282.607 198.549 281.896 189.578 278.75 182.766C276.414 177.709 271.738 174.625 267.762 171.677C264.785 169.47 262.946 165.498 260.258 162.845C255.274 157.929 253.042 165.243 250.736 169.269C248.266 173.58 244.765 176.871 242.042 180.935Z" fill="#E2A40A"/>
<path d="M255.495 150.797C254.889 155.342 252.172 159.253 248.784 161.465C245.396 163.677 241.411 164.332 237.555 164.054C238.581 160.968 239.26 158.185 241.051 155.642C244.435 150.832 250.354 149.427 255.495 150.797Z" fill="#26725A"/>
<path d="M256.582 161.182C256.362 156.978 256.143 152.774 255.922 148.571" stroke="#152C1A" stroke-width="2" stroke-miterlimit="10" stroke-linecap="round" stroke-linejoin="round"/>
<path d="M237.706 163.664C243.331 159.243 249.107 155.093 255.014 151.228" stroke="#152C1A" stroke-width="2" stroke-miterlimit="10" stroke-linecap="round" stroke-linejoin="round"/>
<path d="M267.278 219.283C266.675 219.64 265.864 219.384 265.49 218.718C265.115 218.051 265.224 217.062 265.731 216.533C266.213 216.029 266.799 215.648 267.376 215.981C267.954 216.315 268.296 217.143 268.167 217.891C268.096 218.305 267.596 219.095 267.278 219.283Z" fill="#B56B00"/>
<path d="M274.695 214.235C274.092 214.592 273.281 214.336 272.907 213.669C272.532 213.003 272.641 212.013 273.148 211.485C273.63 210.981 274.216 210.6 274.793 210.933C275.371 211.266 275.713 212.094 275.584 212.843C275.513 213.257 275.013 214.047 274.695 214.235Z" fill="#B56B00"/>
<path d="M271.516 207.924C270.913 208.281 270.102 208.025 269.728 207.359C269.353 206.692 269.462 205.703 269.969 205.174C270.451 204.67 271.037 204.289 271.614 204.623C272.192 204.956 272.534 205.784 272.405 206.532C272.334 206.946 271.834 207.737 271.516 207.924Z" fill="#B56B00"/>
<path d="M256.682 170.06C256.079 170.418 255.268 170.161 254.894 169.495C254.519 168.829 254.628 167.839 255.135 167.31C255.617 166.807 256.204 166.426 256.78 166.759C257.357 167.092 257.7 167.92 257.571 168.668C257.5 169.082 257 169.874 256.682 170.06Z" fill="#B56B00"/>
<path d="M256.682 180.157C256.079 180.514 255.268 180.258 254.894 179.592C254.519 178.925 254.628 177.936 255.135 177.407C255.617 176.903 256.204 176.522 256.78 176.855C257.357 177.189 257.7 178.017 257.571 178.765C257.5 179.179 257 179.97 256.682 180.157Z" fill="#B56B00"/>
<path d="M248.205 180.157C247.602 180.514 246.792 180.258 246.418 179.592C246.042 178.925 246.152 177.936 246.658 177.407C247.14 176.903 247.727 176.522 248.304 176.855C248.88 177.189 249.223 178.017 249.094 178.765C249.023 179.179 248.523 179.97 248.205 180.157Z" fill="#B56B00"/>
<path d="M274.551 182.595C276.353 186.607 277.649 190.941 278.382 195.408" stroke="#B56B00" stroke-width="2" stroke-miterlimit="10" stroke-linecap="round" stroke-linejoin="round"/>
<path d="M528.541 376.427C509.454 389.993 483.977 389.792 464.588 377.098C461.837 375.298 455.346 370.665 452.503 365.651C450.771 368.853 449.04 372.058 447.285 375.291C449.76 381.202 457.751 386.909 460.962 389.012C482.475 403.096 510.987 402.821 531.632 386.658C530.612 383.238 529.58 379.83 528.541 376.427Z" fill="#408C76"/>
<path d="M526.564 371.031C517.182 339.579 506.77 309.113 498.977 277.051C484.451 306.128 470.152 332.933 454.737 361.352C456.844 366.386 463.649 371.246 466.384 373.036C484.703 385.03 508.983 384.795 526.564 371.031Z" fill="#EF6359"/>
<path d="M497.863 301.867C499.2 300.813 499.134 297.836 498.489 296.22C498.327 295.814 498.068 295.38 497.635 295.197C496.848 294.862 496.196 295.568 495.914 296.225C495.447 297.307 494.441 301.135 496.229 302.037C496.787 302.318 497.446 302.195 497.863 301.867Z" fill="#152C1A"/>
<path d="M493.746 333.772C495.083 332.718 495.016 329.741 494.372 328.126C494.21 327.719 493.95 327.285 493.518 327.102C492.731 326.768 492.079 327.473 491.796 328.131C491.33 329.212 490.323 333.039 492.112 333.943C492.669 334.222 493.329 334.101 493.746 333.772Z" fill="#152C1A"/>
<path d="M489.187 317.882C490.551 316.716 490.536 313.518 489.917 311.798C489.761 311.365 489.507 310.905 489.076 310.719C488.29 310.379 487.622 311.153 487.325 311.867C486.838 313.041 485.757 317.179 487.54 318.105C488.096 318.394 488.762 318.247 489.187 317.882Z" fill="#152C1A"/>
<path d="M502.928 319.591C504.292 318.425 504.277 315.227 503.658 313.506C503.502 313.073 503.248 312.614 502.817 312.427C502.03 312.088 501.363 312.861 501.066 313.576C500.579 314.749 499.498 318.888 501.281 319.813C501.836 320.102 502.502 319.954 502.928 319.591Z" fill="#152C1A"/>
<path d="M481.398 340.565C482.762 339.398 482.747 336.2 482.128 334.48C481.973 334.047 481.718 333.588 481.287 333.401C480.501 333.061 479.833 333.835 479.537 334.549C479.049 335.723 477.968 339.862 479.752 340.787C480.307 341.075 480.972 340.928 481.398 340.565Z" fill="#152C1A"/>
<path d="M505.371 345.784C506.735 344.618 506.72 341.419 506.101 339.699C505.946 339.266 505.691 338.807 505.26 338.62C504.474 338.281 503.806 339.054 503.509 339.769C503.022 340.942 501.941 345.081 503.725 346.006C504.28 346.295 504.945 346.147 505.371 345.784Z" fill="#152C1A"/>
<path d="M460.132 360.653C465.612 366.531 472.161 370.991 479.193 373.638" stroke="#AA293C" stroke-width="2" stroke-miterlimit="10" stroke-linecap="round" stroke-linejoin="round"/>
<path d="M485.52 375.831C487.29 375.821 489.062 375.996 490.807 376.35" stroke="#AA293C" stroke-width="2" stroke-miterlimit="10" stroke-linecap="round" stroke-linejoin="round"/>
<path d="M344.25 134.944C344.722 143.376 346.385 151.713 349.145 159.497C349.559 160.666 350.013 161.849 350.751 162.764C351.49 163.679 352.574 164.292 353.62 164.05C354.787 163.779 355.643 162.5 355.967 161.136C356.29 159.771 356.179 158.321 356.058 156.911C355.414 149.426 354.55 141.968 353.467 134.554C353.262 133.148 353.028 131.686 352.312 130.543" fill="#EFC478"/>
<path d="M332.435 144.391C333.032 138.705 333.655 132.916 335.674 127.714C337.692 122.513 341.368 117.9 346.069 116.691C351.133 115.388 356.453 118.296 360.06 122.726C363.666 127.155 365.855 132.921 367.808 138.636" fill="#D19F35"/>
<path d="M336.7 140.227C337.397 136.037 338.524 131.947 340.051 128.082" stroke="#936719" stroke-width="2" stroke-miterlimit="10" stroke-linecap="round" stroke-linejoin="round"/>
<path d="M342.834 123.011C343.882 121.734 345.243 120.824 346.704 120.423" stroke="#936719" stroke-width="2" stroke-miterlimit="10" stroke-linecap="round" stroke-linejoin="round"/>
<path d="M293.39 107.178C293.862 115.611 295.525 123.946 298.285 131.732C298.699 132.901 299.153 134.083 299.892 134.998C300.63 135.913 301.714 136.527 302.76 136.284C303.927 136.013 304.784 134.734 305.107 133.37C305.43 132.006 305.319 130.556 305.198 129.146C304.554 121.66 303.69 114.202 302.607 106.788C302.402 105.382 302.169 103.921 301.452 102.777" fill="#EFC478"/>
<path d="M281.575 116.624C282.172 110.938 282.795 105.148 284.814 99.9472C286.832 94.746 290.508 90.1329 295.209 88.9238C300.273 87.6213 305.593 90.5292 309.2 94.9593C312.806 99.3881 314.995 105.154 316.948 110.868" fill="#D19F35"/>
<path d="M286.271 112.893C286.97 110.086 287.668 107.279 288.368 104.471" stroke="#936719" stroke-width="2" stroke-miterlimit="10" stroke-linecap="round" stroke-linejoin="round"/>
<path d="M404.717 332.942C398.816 332.88 394.347 339.092 395.339 346.021C395.563 347.593 395.894 349.149 396.271 350.638C397.763 356.526 399.364 363.059 402.486 368.117C407.503 376.248 413.232 370.088 415.971 362.818C417.033 360.001 418.094 357.184 419.155 354.367C420.188 351.624 421.235 348.826 421.506 345.837C421.777 342.85 421.151 339.586 419.283 337.566C418.023 336.204 416.351 335.543 414.732 334.918C411.539 333.684 408.119 332.977 404.717 332.942Z" fill="#D34340"/>
<path d="M406.715 333.048C406.614 328.599 406.578 324.152 406.607 319.708C408.141 319.419 409.725 319.533 411.251 320.041C411.307 324.622 411.364 329.202 411.421 333.783" fill="#255E4C"/>
<path d="M409.633 331.03C405.047 330.594 400.377 331.483 396.134 333.598C398.865 334.647 400.198 336.222 403.067 336.17C405.937 336.119 407.587 333.427 409.633 331.03Z" fill="#255E4C"/>
<path d="M410.714 332.366C406.255 333.709 402.071 336.338 398.624 339.965C401.493 339.913 403.181 340.894 405.884 339.747C408.588 338.601 409.424 335.419 410.714 332.366Z" fill="#255E4C"/>
<path d="M408.687 333.022C412.491 336.1 416.921 338.078 421.486 338.74C419.547 336.219 419.042 334.065 416.526 332.42C414.011 330.774 411.459 332.142 408.687 333.022Z" fill="#255E4C"/>
<path d="M405.503 332.61C408.073 337.155 411.564 340.955 415.596 343.593C414.584 340.395 414.788 338.171 412.968 335.528C411.148 332.885 408.351 333.024 405.503 332.61Z" fill="#255E4C"/>
<path d="M406.65 351.968C406.508 352.667 406.539 353.415 406.738 354.096C406.864 354.526 407.17 354.994 407.541 354.888C407.794 354.816 407.942 354.505 408.034 354.214C408.371 353.153 408.381 351.95 408.062 350.881C407.963 350.545 407.771 350.173 407.472 350.168C407.148 350.163 406.951 350.586 406.85 350.953C406.692 351.53 406.587 352.128 406.536 352.731" fill="#143A2F"/>
<path d="M401.468 347.223C401.326 347.922 401.357 348.67 401.556 349.351C401.682 349.781 401.988 350.249 402.36 350.143C402.613 350.071 402.76 349.76 402.852 349.469C403.189 348.408 403.2 347.205 402.881 346.136C402.781 345.8 402.589 345.428 402.291 345.423C401.966 345.418 401.769 345.841 401.669 346.208C401.511 346.785 401.405 347.383 401.354 347.986" fill="#143A2F"/>
<path d="M414.106 347.277C413.964 347.976 413.995 348.725 414.194 349.405C414.32 349.835 414.627 350.303 414.997 350.197C415.251 350.126 415.398 349.814 415.49 349.523C415.827 348.462 415.838 347.259 415.519 346.19C415.419 345.854 415.227 345.482 414.929 345.477C414.604 345.472 414.407 345.895 414.307 346.262C414.149 346.839 414.043 347.437 413.992 348.04" fill="#143A2F"/>
<path d="M409.868 361.16C409.726 361.859 409.757 362.608 409.956 363.288C410.082 363.719 410.388 364.187 410.759 364.081C411.012 364.009 411.159 363.697 411.252 363.407C411.589 362.345 411.599 361.143 411.28 360.073C411.181 359.738 410.989 359.365 410.69 359.36C410.366 359.355 410.169 359.778 410.068 360.145C409.91 360.722 409.804 361.32 409.753 361.924" fill="#143A2F"/>
<path d="M403.304 358.989C403.162 359.689 403.193 360.437 403.392 361.117C403.518 361.548 403.824 362.016 404.195 361.91C404.448 361.838 404.596 361.526 404.688 361.236C405.025 360.174 405.035 358.972 404.716 357.903C404.617 357.567 404.425 357.195 404.126 357.189C403.802 357.184 403.605 357.607 403.504 357.975C403.346 358.551 403.24 359.15 403.189 359.753" fill="#143A2F"/>
<path d="M368.648 371.231C362.747 371.169 358.278 377.381 359.269 384.31C359.494 385.882 359.825 387.438 360.202 388.927C361.694 394.815 363.295 401.348 366.416 406.406C371.433 414.537 377.163 408.377 379.902 401.107C380.963 398.29 382.025 395.473 383.086 392.656C384.119 389.913 385.166 387.115 385.437 384.126C385.708 381.137 385.082 377.875 383.214 375.855C381.954 374.494 380.282 373.833 378.663 373.207C375.469 371.973 372.05 371.266 368.648 371.231Z" fill="#D34340"/>
<path d="M370.645 371.337C370.545 366.888 370.509 362.441 370.538 357.997C372.072 357.708 373.657 357.822 375.181 358.33C375.238 362.911 375.295 367.491 375.352 372.073" fill="#255E4C"/>
<path d="M373.563 369.319C368.977 368.883 364.308 369.772 360.064 371.887C362.795 372.936 364.129 374.511 366.998 374.459C369.867 374.408 371.517 371.716 373.563 369.319Z" fill="#255E4C"/>
<path d="M374.646 370.655C370.187 371.998 366.003 374.627 362.555 378.253C365.425 378.201 367.113 379.182 369.816 378.034C372.519 376.888 373.355 373.708 374.646 370.655Z" fill="#255E4C"/>
<path d="M372.617 371.31C376.422 374.389 380.851 376.366 385.417 377.028C383.478 374.507 382.973 372.353 380.457 370.708C377.942 369.064 375.39 370.432 372.617 371.31Z" fill="#255E4C"/>
<path d="M369.434 370.898C372.004 375.443 375.495 379.243 379.527 381.881C378.515 378.683 378.719 376.459 376.899 373.816C375.078 371.174 372.282 371.313 369.434 370.898Z" fill="#255E4C"/>
<path d="M370.581 390.257C370.439 390.956 370.469 391.705 370.669 392.385C370.795 392.815 371.1 393.283 371.472 393.177C371.725 393.106 371.872 392.794 371.965 392.503C372.302 391.442 372.312 390.239 371.993 389.17C371.894 388.834 371.702 388.462 371.403 388.457C371.079 388.452 370.882 388.875 370.781 389.242C370.623 389.819 370.517 390.417 370.466 391.02" fill="#143A2F"/>
<path d="M365.399 385.512C365.257 386.211 365.288 386.959 365.487 387.64C365.613 388.07 365.918 388.538 366.29 388.432C366.543 388.36 366.691 388.049 366.783 387.758C367.12 386.697 367.13 385.494 366.812 384.425C366.712 384.089 366.52 383.717 366.221 383.712C365.897 383.707 365.7 384.13 365.599 384.497C365.441 385.074 365.336 385.672 365.285 386.275" fill="#143A2F"/>
<path d="M378.038 385.566C377.896 386.265 377.927 387.014 378.126 387.694C378.252 388.124 378.559 388.593 378.929 388.487C379.183 388.415 379.33 388.103 379.422 387.813C379.759 386.751 379.77 385.548 379.451 384.479C379.351 384.144 379.159 383.771 378.861 383.766C378.536 383.761 378.339 384.184 378.239 384.551C378.081 385.128 377.975 385.726 377.924 386.33" fill="#143A2F"/>
<path d="M373.8 399.449C373.658 400.148 373.688 400.897 373.888 401.577C374.014 402.008 374.32 402.476 374.691 402.37C374.944 402.298 375.091 401.986 375.184 401.696C375.521 400.634 375.531 399.432 375.212 398.363C375.113 398.027 374.921 397.655 374.622 397.649C374.298 397.644 374.101 398.067 374 398.434C373.842 399.011 373.736 399.61 373.685 400.213" fill="#143A2F"/>
<path d="M367.235 397.278C367.093 397.978 367.123 398.726 367.323 399.406C367.449 399.835 367.754 400.305 368.126 400.199C368.379 400.127 368.526 399.815 368.618 399.525C368.955 398.463 368.966 397.261 368.647 396.192C368.547 395.856 368.356 395.484 368.057 395.479C367.733 395.474 367.535 395.896 367.435 396.264C367.277 396.84 367.171 397.439 367.12 398.042" fill="#143A2F"/>
<path d="M82.2429 94.0976C82.6551 92.0315 83.312 89.9389 84.6195 88.4963C85.927 87.0536 88.0282 86.4579 89.5317 87.5976C90.4864 88.3221 91.0469 89.5842 91.492 90.8249C93.0167 95.0669 93.7044 99.7317 93.4829 104.339C94.6728 102.33 97.4002 102.304 98.9716 103.898C100.542 105.492 101.055 108.194 100.783 110.63C100.022 117.461 95.1782 128.369 91.7505 133.876C89.1217 138.099 88.2496 137.839 85.0963 134.3C81.5849 130.359 77.4069 124.011 76.1577 118.553C74.7315 112.316 78.0819 105.063 83.419 111.411C81.5722 105.642 81.3539 100.127 82.2429 94.0976Z" fill="#26725A"/>
<path d="M89.6262 141.087C88.6704 123.312 87.7147 105.539 86.76 87.7642" stroke="#152C1A" stroke-width="2" stroke-miterlimit="10" stroke-linecap="round" stroke-linejoin="round"/>
<path d="M76.8303 111.207C80.6003 116.445 84.3703 121.681 88.1403 126.919C91.2502 119.548 94.999 112.234 98.1089 104.863" stroke="#152C1A" stroke-width="2" stroke-miterlimit="10" stroke-linecap="round" stroke-linejoin="round"/>
<path d="M92.6296 231.838C95.9472 244.07 99.5254 256.216 103.135 268.361C103.66 270.125 104.438 272.159 105.985 272.484C107.821 272.868 109.259 270.472 109.526 268.274C111.383 252.982 110.29 236.525 110.532 221.078C110.799 204.084 110.842 183.313 111.109 166.318C111.225 158.903 111.034 150.557 106.522 145.446C103.234 141.722 98.4245 139.614 93.9149 140.216C74.977 142.748 77.2668 156.014 79.6222 171.908C82.6516 192.346 87.3042 212.203 92.6296 231.838Z" fill="#EB743A"/>
<path d="M78.6602 156.871C88.5895 155.325 98.54 153.972 108.506 152.813" stroke="#933414" stroke-width="2" stroke-miterlimit="10" stroke-linecap="round" stroke-linejoin="round"/>
<path d="M79.5132 165.447C89.4362 163.536 99.3581 161.627 109.281 159.716" stroke="#933414" stroke-width="2" stroke-miterlimit="10" stroke-linecap="round" stroke-linejoin="round"/>
<path d="M81.5942 182.058C91.1262 180.179 100.733 178.843 110.374 178.057" stroke="#933414" stroke-width="2" stroke-miterlimit="10" stroke-linecap="round" stroke-linejoin="round"/>
<path d="M83.9072 191.544C92.2249 190.42 100.543 189.295 108.861 188.172" stroke="#933414" stroke-width="2" stroke-miterlimit="10" stroke-linecap="round" stroke-linejoin="round"/>
<path d="M87.8818 210.506C95.0573 209.835 102.189 208.513 109.197 206.56" stroke="#933414" stroke-width="2" stroke-miterlimit="10" stroke-linecap="round" stroke-linejoin="round"/>
<path d="M91.2703 219.817C97.8715 219.598 102.276 217.98 108.803 216.783" stroke="#933414" stroke-width="2" stroke-miterlimit="10" stroke-linecap="round" stroke-linejoin="round"/>
<path d="M93.5569 234.386C98.9586 233.928 104.36 233.469 109.763 233.011" stroke="#933414" stroke-width="2" stroke-miterlimit="10" stroke-linecap="round" stroke-linejoin="round"/>
<path d="M95.8584 243.119C100.091 242.914 104.324 242.71 108.557 242.504" stroke="#933414" stroke-width="2" stroke-miterlimit="10" stroke-linecap="round" stroke-linejoin="round"/>
<path d="M100.951 257.379C104.004 257.12 107.057 256.861 110.111 256.603" stroke="#933414" stroke-width="2" stroke-miterlimit="10" stroke-linecap="round" stroke-linejoin="round"/>
<path d="M592.291 281.347C585.818 278.825 578.779 276.536 572.418 279.498C553.82 288.156 559.217 324.811 575.834 331.661C582.931 334.586 591.156 332.407 596.784 326.111" fill="#D34340"/>
<path d="M584.39 282.909C589.84 279.288 596.017 277.59 602.111 278.036C604.192 278.189 606.276 278.59 608.241 279.507C616.549 283.378 621.132 296.503 619.354 307.878C615.14 334.854 588.12 342.779 574.229 323.756" fill="#D34340"/>
<path d="M589.257 283.357C586.505 276.151 587.493 267.126 591.704 261C592.531 261.141 592.659 262.212 592.913 263.161C594.718 269.937 592.408 277.319 589.257 283.357Z" fill="#255E4C"/>
<path d="M608.209 279.117C605.877 275.44 601.547 274.241 597.729 274.978C593.91 275.715 590.462 278.053 587.108 280.351C588.825 281.929 590.924 282.541 593.092 282.537C598.049 282.531 603.386 280.48 608.209 279.117Z" fill="#255E4C"/>
<path d="M592.067 281.405C590.338 277.283 586.265 275.162 582.397 275.056C578.53 274.95 574.781 276.499 571.132 278.027C572.578 279.951 574.547 281.01 576.679 281.479C581.554 282.551 587.116 281.695 592.067 281.405Z" fill="#255E4C"/>
<path d="M578.39 290.649C581.127 291.517 584.078 289.883 586.002 287.408C587.926 284.932 589.029 281.731 590.094 278.604C588.507 278.617 587.065 279.391 585.816 280.557C582.958 283.223 580.657 287.273 578.39 290.649Z" fill="#255E4C"/>
<path d="M594.057 295.408C595.717 292.676 595.495 288.809 594.244 285.782C592.992 282.756 590.879 280.382 588.81 278.078C588.251 279.848 588.341 281.729 588.807 283.536C589.873 287.668 592.222 291.679 594.057 295.408Z" fill="#255E4C"/>
<path d="M597.441 329.225C600.449 328.327 603.5 327.408 606.182 325.555C608.864 323.703 611.175 320.761 611.81 317.148" stroke="#A82C2C" stroke-width="2" stroke-miterlimit="10" stroke-linecap="round" stroke-linejoin="round"/>
<path d="M565.682 298.022C565.637 294.063 567.08 290.114 569.544 287.456" stroke="#A82C2C" stroke-width="2" stroke-miterlimit="10" stroke-linecap="round" stroke-linejoin="round"/>
<path d="M564.969 304.76C565.313 306.166 565.656 307.572 566 308.977" stroke="#A82C2C" stroke-width="2" stroke-miterlimit="10" stroke-linecap="round" stroke-linejoin="round"/>
<path d="M429.119 105.429C425.839 119.468 427.348 135.435 434.64 147.136C441.932 158.837 455.357 165.26 467.047 160.967C474.927 158.073 481.36 150.761 485.167 142.049" fill="#EF6359"/>
<path d="M435.622 109.662C433.503 119.673 434.953 131.08 440.11 139.355C445.413 147.864 455.176 152.535 463.679 149.413C469.157 147.401 475.143 143.252 478.078 137.356" fill="#E2273A"/>
<path d="M446.987 138.493C446.517 138.946 446.16 139.562 445.972 140.246C445.854 140.679 445.857 141.272 446.206 141.457C446.445 141.583 446.72 141.441 446.942 141.277C447.75 140.678 448.372 139.73 448.665 138.651C448.757 138.311 448.794 137.878 448.559 137.658C448.303 137.419 447.931 137.612 447.663 137.832C447.244 138.175 446.855 138.574 446.506 139.017" fill="#F48784"/>
<path d="M441.171 131.565C440.702 132.018 440.344 132.634 440.156 133.318C440.037 133.751 440.041 134.345 440.39 134.529C440.629 134.655 440.904 134.514 441.126 134.35C441.934 133.75 442.556 132.802 442.848 131.723C442.941 131.384 442.978 130.951 442.744 130.73C442.488 130.491 442.116 130.684 441.848 130.904C441.429 131.247 441.04 131.646 440.691 132.089" fill="#F48784"/>
<path d="M456.036 141.573C455.565 142.026 455.208 142.642 455.021 143.326C454.902 143.759 454.905 144.352 455.255 144.536C455.493 144.662 455.769 144.521 455.99 144.357C456.799 143.759 457.421 142.81 457.713 141.731C457.805 141.391 457.842 140.957 457.608 140.737C457.353 140.497 456.981 140.692 456.713 140.91C456.293 141.253 455.904 141.652 455.556 142.095" fill="#F48784"/>
<path d="M438.541 122.349C438.092 122.83 437.762 123.469 437.604 124.163C437.505 124.602 437.534 125.194 437.892 125.357C438.135 125.468 438.403 125.31 438.617 125.132C439.398 124.483 439.978 123.498 440.223 122.402C440.299 122.057 440.318 121.622 440.073 121.416C439.808 121.193 439.445 121.41 439.187 121.646C438.783 122.016 438.413 122.437 438.084 122.902" fill="#F48784"/>
<path d="M465.73 140.803C465.261 141.256 464.903 141.872 464.715 142.556C464.596 142.989 464.6 143.582 464.949 143.767C465.188 143.893 465.463 143.751 465.685 143.587C466.493 142.988 467.115 142.04 467.408 140.961C467.5 140.621 467.537 140.187 467.303 139.968C467.047 139.729 466.675 139.922 466.407 140.142C465.988 140.485 465.599 140.884 465.25 141.327" fill="#F48784"/>
<path d="M461.956 126.925C461.601 127.07 461.372 127.469 461.14 127.821C460.29 129.109 459.053 130.057 457.695 130.316C456.337 130.575 454.87 130.104 453.874 128.974C453.022 128.009 452.554 126.639 452.372 125.256C452.188 123.873 452.268 122.46 452.37 121.064C452.321 121.379 452.294 121.297 452.246 121.612C452.265 121.254 452.369 120.903 452.488 120.572" fill="#EF6359"/>
<path d="M148.21 395.379C124.036 396.256 98.8538 388.354 81.0666 368.834C63.2794 349.314 54.5739 317.016 63.61 290.294C64.8115 286.739 64.0222 283.346 65.0372 279.71C74.3192 288.197 78.3816 302.229 84.0069 314.45C100.215 349.663 130.731 371.54 159.859 391.762C156.13 392.975 152.077 395.239 148.21 395.379Z" fill="#E2A40A"/>
<path d="M66.5876 284.881C66.8398 314.384 78.1657 343.509 96.8959 362.819" stroke="#B56B00" stroke-width="2" stroke-miterlimit="10" stroke-linecap="round" stroke-linejoin="round"/>
<path d="M97.2654 355.772C101.114 359.561 105.321 362.832 109.782 365.502" stroke="#B56B00" stroke-width="2" stroke-miterlimit="10" stroke-linecap="round" stroke-linejoin="round"/>
<path d="M111.589 371.479C124.36 380.448 138.041 387.58 152.239 392.666" stroke="#B56B00" stroke-width="2" stroke-miterlimit="10" stroke-linecap="round" stroke-linejoin="round"/>
<path d="M69.2224 285.034C71.1434 290.383 73.0634 295.73 74.9844 301.079" stroke="#B56B00" stroke-width="2" stroke-miterlimit="10" stroke-linecap="round" stroke-linejoin="round"/>
<path d="M63.7869 288.199C66.0756 287.452 68.4141 286.919 70.7727 286.61C69.6209 282.515 68.0368 278.424 66.8851 274.327C65.675 275.163 63.5569 275.389 62.1636 275.544C62.4931 279.547 63.4573 284.198 63.7869 288.199Z" fill="#152C1A"/>
<path d="M153.175 386.908C152.764 389.692 152.168 392.437 151.393 395.109C154.994 395.621 158.776 395.664 162.377 396.177C162.261 394.516 162.994 392.139 163.472 390.573C160.295 389.216 156.353 388.265 153.175 386.908Z" fill="#152C1A"/>
<path d="M75.1445 356.689C77.7638 361.304 80.8175 365.567 84.2294 369.376" stroke="#B56B00" stroke-width="2" stroke-miterlimit="10" stroke-linecap="round" stroke-linejoin="round"/>
<path d="M703.838 242.375C704.503 239.945 705.574 237.154 707.581 236.834C709.734 236.491 711.457 239.551 711.318 242.305C711.178 245.061 709.793 247.427 708.421 249.567C706.259 252.946 704.036 256.572 701.428 259.378C698.944 256.127 702.771 246.274 703.838 242.375Z" fill="#848A3B"/>
<path d="M693.46 273.621C691.975 270.04 690.48 266.432 689.562 262.555C688.644 258.678 688.329 254.47 689.227 250.585C689.606 248.948 690.567 248.281 691.792 248.973C693.019 249.665 693.719 251.321 694.152 252.936C695.866 259.337 694.591 267.012 693.46 273.621Z" fill="#848A3B"/>
<path d="M706.705 264.366C708.207 264.335 709.959 265.064 710.395 266.892C710.733 268.31 710.096 269.872 709.161 270.754C708.226 271.637 707.051 271.982 705.908 272.268C701.719 273.317 696.938 274.403 692.691 273.708C693.736 269.554 703.277 264.437 706.705 264.366Z" fill="#848A3B"/>
<path d="M682.171 291.535C679.832 285.447 678.682 278.626 678.854 271.852C678.935 268.664 679.452 265.145 681.448 263.212C682.977 261.731 684.78 264.461 685.397 266.778C686.492 270.892 685.882 275.398 685.112 279.63C684.473 283.152 683.73 286.642 682.887 290.093C682.746 290.339 681.995 291.741 682.171 291.535Z" fill="#848A3B"/>
<path d="M668.501 305.867C666.162 299.779 665.012 292.957 665.183 286.184C665.264 282.995 665.782 279.476 667.777 277.544C669.306 276.062 671.109 278.793 671.726 281.109C672.822 285.223 672.211 289.73 671.442 293.962C670.802 297.483 670.059 300.974 669.217 304.425C669.075 304.67 668.325 306.073 668.501 305.867Z" fill="#848A3B"/>
<path d="M685.18 287.467C689.893 284.312 695.218 282.648 700.546 282.666C703.053 282.674 705.833 283.229 707.41 285.708C708.619 287.608 706.527 289.983 704.725 290.836C701.526 292.351 697.967 291.708 694.619 290.855C691.834 290.146 689.069 289.305 686.333 288.335C686.136 288.163 685.012 287.249 685.18 287.467Z" fill="#848A3B"/>
<path d="M673.101 301.805C678.062 299.338 683.499 298.439 688.79 299.211C691.281 299.574 693.995 300.519 695.346 303.207C696.381 305.267 694.094 307.33 692.23 307.923C688.918 308.975 685.438 307.832 682.185 306.51C679.479 305.411 676.805 304.183 674.171 302.831C673.99 302.632 672.953 301.565 673.101 301.805Z" fill="#848A3B"/>
<path d="M656.423 315.103C676.407 303.804 691.574 281.558 701.742 256.926" stroke="#545615" stroke-width="2" stroke-miterlimit="10" stroke-linecap="round" stroke-linejoin="round"/>
<path d="M535.818 275.751C523.498 272.218 499.756 271.633 491.222 258.795C488.362 254.493 486.978 248.243 488.723 243.067C490.469 237.889 495.884 234.841 499.679 237.745C495.852 235.023 492.66 231.729 490.204 227.111C487.949 222.871 486.397 217.521 487.635 212.65C488.873 207.779 493.865 204.462 497.162 207.394C493.874 202.37 490.824 194.535 491.721 188.099C492.619 181.661 498.301 176.239 502.981 178.939C507.26 181.407 508.262 188.376 510.677 193.502C511.799 189.734 512.143 186.537 515.196 185.47C520.653 183.564 525.978 190.152 527.326 197.143C528.673 204.136 527.415 211.455 527.298 218.653C527.933 214.905 528.922 211.875 530.698 208.779C532.473 205.682 535.668 203.556 538.534 204.74C539.783 205.256 540.844 206.334 541.745 207.55C545.51 212.632 546.701 220.095 546.296 227.061C545.89 234.026 544.08 240.711 542.556 247.422C540.451 256.686 538.87 266.144 537.829 275.697" fill="#408C76"/>
<path d="M496.364 181.792C513.196 215.812 527.913 251.61 543.316 286.708" stroke="#152C1A" stroke-width="2" stroke-miterlimit="10" stroke-linecap="round" stroke-linejoin="round"/>
<path d="M487.862 213.252C497.199 217.828 506.637 220.488 516.443 223.016C518.49 211.168 520.036 199.18 521.071 187.121" stroke="#152C1A" stroke-width="2" stroke-miterlimit="10" stroke-linecap="round" stroke-linejoin="round"/>
<path d="M538.935 207.389C536.068 223.252 533.203 239.117 530.336 254.98C526.813 253.348 521.851 253.634 518.112 253.274C508.677 252.37 499.242 251.464 489.807 250.559" stroke="#152C1A" stroke-width="2" stroke-miterlimit="10" stroke-linecap="round" stroke-linejoin="round"/>
<path d="M522.458 238.11C523.683 230.606 525.371 223.225 527.502 216.057" stroke="#152C1A" stroke-width="2" stroke-miterlimit="10" stroke-linecap="round" stroke-linejoin="round"/>
<path d="M495.401 205.831C500.506 207.949 505.61 210.067 510.715 212.185" stroke="#152C1A" stroke-width="2" stroke-miterlimit="10" stroke-linecap="round" stroke-linejoin="round"/>
<path d="M498.249 236.754C500.095 236.481 501.947 236.207 503.806 236.21C504.804 236.211 505.801 236.293 506.798 236.373C512.01 236.797 517.223 237.222 522.434 237.646" stroke="#152C1A" stroke-width="2" stroke-miterlimit="10" stroke-linecap="round" stroke-linejoin="round"/>
<path d="M219.589 352.351C212.296 352.599 205.386 358.224 201.681 366.221C197.978 374.218 197.4 384.284 199.628 393.122C206.319 394.621 211.065 391.822 215.619 385.408C220.174 378.993 221.439 360.667 219.589 352.351Z" fill="#408C76"/>
<path d="M219.492 352.534C212.465 367.794 204.027 384.741 197 400" stroke="#152C1A" stroke-width="2" stroke-miterlimit="10" stroke-linecap="round" stroke-linejoin="round"/>
<path d="M205.158 360.758C205.848 366.084 206.539 371.411 207.228 376.737" stroke="#152C1A" stroke-width="2" stroke-miterlimit="10" stroke-linecap="round" stroke-linejoin="round"/>
<path d="M209.544 356.879C210.152 361.034 210.761 365.191 211.369 369.346C213.941 368.136 216.512 366.925 219.083 365.715" stroke="#152C1A" stroke-width="2" stroke-miterlimit="10" stroke-linecap="round" stroke-linejoin="round"/>
<path d="M694.864 148.233C692.264 150.951 691.787 157.591 691.826 161.341C691.954 174.007 696.31 184.175 705.314 189.993C710.437 193.304 716.113 194.926 721.721 196.517C723.361 188.197 724.515 181.812 723.114 173.421C720.521 157.9 710.156 146.406 697.384 147.024C696.377 147.074 695.547 147.518 694.864 148.233Z" fill="#408C76"/>
<path d="M729 206.393C716.56 187.575 705.728 168.29 694.528 148.25" stroke="#152C1A" stroke-width="2" stroke-miterlimit="10" stroke-linecap="round" stroke-linejoin="round"/>
<path d="M701.139 148.895C701.396 152.996 701.654 157.098 701.91 161.199" stroke="#152C1A" stroke-width="2" stroke-miterlimit="10" stroke-linecap="round" stroke-linejoin="round"/>
<path d="M693.062 169.971C696.748 170.448 700.434 170.926 704.121 171.403C705.504 171.582 706.9 171.765 708.212 172.347C708.531 165.7 708.954 158.718 709.85 152.157" stroke="#152C1A" stroke-width="2" stroke-miterlimit="10" stroke-linecap="round" stroke-linejoin="round"/>
<path d="M701.735 186.8C706.828 186.599 711.928 186.736 717.009 187.212C717.382 179.607 718.349 171.514 719.564 164.054" stroke="#152C1A" stroke-width="2" stroke-miterlimit="10" stroke-linecap="round" stroke-linejoin="round"/>
<path d="M68.7429 200C69.0364 200 69.3307 200 69.6242 200C71.007 200 72.3325 198.62 72.2681 197C72.2038 195.375 71.1066 194 69.6242 194C69.3307 194 69.0364 194 68.7429 194C67.3601 194 66.0346 195.38 66.0989 197C66.1633 198.625 67.2605 200 68.7429 200Z" fill="#152C1A"/>
<path d="M71.3866 235C74.7893 235 74.7946 229 71.3866 229C67.9838 229 67.9785 235 71.3866 235Z" fill="#152C1A"/>
<path d="M44.0658 215C47.4685 215 47.4738 209 44.0658 209C40.663 209 40.6577 215 44.0658 215Z" fill="#152C1A"/>
<path d="M39.6593 237C43.062 237 43.0673 231 39.6593 231C36.2565 231 36.2512 237 39.6593 237Z" fill="#152C1A"/>
<path d="M62.5735 253C62.5735 252.667 62.5735 252.333 62.5735 252C62.5735 250.431 61.3573 248.927 59.9296 249C58.4975 249.073 57.2856 250.318 57.2856 252C57.2856 252.333 57.2856 252.667 57.2856 253C57.2856 254.569 58.5019 256.073 59.9296 256C61.3617 255.927 62.5735 254.682 62.5735 253Z" fill="#152C1A"/>
<path d="M85.4876 223C88.8904 223 88.8957 217 85.4876 217C82.0849 217 82.0796 223 85.4876 223Z" fill="#152C1A"/>
<path d="M95.1822 246C98.585 246 98.5903 240 95.1822 240C91.7795 240 91.7742 246 95.1822 246Z" fill="#152C1A"/>
<path d="M19.389 256C22.7918 256 22.7971 250 19.389 250C15.9863 250 15.981 256 19.389 256Z" fill="#152C1A"/>
<path d="M27.3209 281C30.7237 281 30.7289 275 27.3209 275C23.9181 275 23.9129 281 27.3209 281Z" fill="#152C1A"/>
<path d="M25.5582 210C28.961 210 28.9663 204 25.5582 204C22.1554 204 22.1502 210 25.5582 210Z" fill="#152C1A"/>
<path d="M550.823 181C554.225 181 554.231 175 550.823 175C547.42 175 547.415 181 550.823 181Z" fill="#152C1A"/>
<path d="M570.212 173C573.614 173 573.62 167 570.212 167C566.809 167 566.803 173 570.212 173Z" fill="#152C1A"/>
<path d="M576.381 193C579.783 193 579.789 187 576.381 187C572.978 187 572.973 193 576.381 193Z" fill="#152C1A"/>
<path d="M611.633 170C615.036 170 615.041 164 611.633 164C608.231 164 608.225 170 611.633 170Z" fill="#152C1A"/>
<path d="M589.6 152C593.003 152 593.008 146 589.6 146C586.198 146 586.192 152 589.6 152Z" fill="#152C1A"/>
<path d="M546.416 150C549.819 150 549.824 144 546.416 144C543.013 144 543.008 150 546.416 150Z" fill="#152C1A"/>
<path d="M525.265 187C528.667 187 528.673 181 525.265 181C521.862 181 521.856 187 525.265 187Z" fill="#152C1A"/>
<path d="M609.764 206.121C609.96 206.343 610.155 206.566 610.352 206.788C611.331 207.899 613.125 207.982 614.091 206.788C615.06 205.59 615.137 203.731 614.091 202.545C613.896 202.323 613.699 202.101 613.503 201.878C612.524 200.767 610.73 200.684 609.764 201.878C608.795 203.076 608.719 204.936 609.764 206.121Z" fill="#152C1A"/>
</svg>
