<?xml version="1.0" encoding="utf-8"?>
<!-- Generator: Adobe Illustrator 27.5.0, SVG Export Plug-In . SVG Version: 6.00 Build 0)  -->
<svg version="1.1" xmlns="http://www.w3.org/2000/svg" xmlns:xlink="http://www.w3.org/1999/xlink" x="0px" y="0px"
	 viewBox="0 0 500 500" style="enable-background:new 0 0 500 500;" xml:space="preserve">
<g id="BACKGROUND">
	<rect style="fill:#FFFFFF;" width="500" height="500"/>
</g>
<g id="OBJECTS">
	<linearGradient id="SVGID_1_" gradientUnits="userSpaceOnUse" x1="251" y1="387.7543" x2="251" y2="78.0427">
		<stop  offset="0" style="stop-color:#5CE596"/>
		<stop  offset="1" style="stop-color:#C5FF81"/>
	</linearGradient>
	<path style="fill:url(#SVGID_1_);" d="M360.44,278.314c0,60.442-48.998,109.44-109.44,109.44s-109.44-48.998-109.44-109.44
		c0-60.442,79.286-121.762,109.44-200.272C251,78.043,360.44,173.432,360.44,278.314z"/>
	<g>
		<path style="fill:#241F33;" d="M325.259,309.5c-22.263,15.8-27.502,46.656-11.702,68.918c15.8,22.263,46.656,27.502,68.919,11.702
			c22.263-15.8,27.502-46.656,11.702-68.919C378.378,298.939,347.522,293.7,325.259,309.5z M374.138,378.373
			c-15.775,11.195-37.638,7.483-48.833-8.292c-11.195-15.775-7.483-37.638,8.292-48.833c15.775-11.195,37.638-7.483,48.833,8.292
			C393.625,345.314,389.913,367.177,374.138,378.373z"/>
		
			<ellipse transform="matrix(0.9814 -0.1918 0.1918 0.9814 -60.5326 74.3798)" style="opacity:0.43;fill:#FFFFFF;" cx="353.868" cy="349.81" rx="35.024" ry="35.024"/>
		<path style="fill:#241F33;" d="M434.021,462.75L434.021,462.75c-3.923,2.784-9.36,1.861-12.144-2.062l-51.419-72.452
			l14.206-10.082l51.419,72.452C438.867,454.529,437.944,459.966,434.021,462.75z"/>
		<path style="opacity:0.15;fill:none;stroke:#FFFFFF;stroke-width:3.5491;stroke-linecap:round;stroke-miterlimit:10;" d="
			M318.14,375.166c-12.253-17.265-10.23-40.362,3.686-55.248"/>
	</g>
	<g>
		
			<ellipse transform="matrix(0.7071 -0.7071 0.7071 0.7071 -215.4474 210.0872)" style="fill:#241F33;" cx="145.874" cy="365.112" rx="92.234" ry="92.234"/>
		<g>
			
				<linearGradient id="SVGID_00000150815198726091401430000013004499213181301644_" gradientUnits="userSpaceOnUse" x1="178.6441" y1="189.9494" x2="149.7063" y2="189.9494" gradientTransform="matrix(0.8563 -0.5166 0.5166 0.8563 -123.9946 234.8128)">
				<stop  offset="0" style="stop-color:#5CE596"/>
				<stop  offset="1" style="stop-color:#C5FF81"/>
			</linearGradient>
			
				<line style="fill:none;stroke:url(#SVGID_00000150815198726091401430000013004499213181301644_);stroke-width:2;stroke-linecap:round;stroke-miterlimit:10;" x1="103.183" y1="319.612" x2="126.25" y2="305.696"/>
			
				<linearGradient id="SVGID_00000004508372323808561300000015763850015495949739_" gradientUnits="userSpaceOnUse" x1="175.2979" y1="196.3409" x2="153.0525" y2="196.3409" gradientTransform="matrix(0.8563 -0.5166 0.5166 0.8563 -123.9946 234.8128)">
				<stop  offset="0" style="stop-color:#5CE596"/>
				<stop  offset="1" style="stop-color:#C5FF81"/>
			</linearGradient>
			
				<line style="fill:none;stroke:url(#SVGID_00000004508372323808561300000015763850015495949739_);stroke-width:2;stroke-linecap:round;stroke-miterlimit:10;" x1="109.35" y1="323.356" x2="126.686" y2="312.897"/>
			
				<linearGradient id="SVGID_00000096057271997170212680000013866991529667323292_" gradientUnits="userSpaceOnUse" x1="171.9516" y1="202.7323" x2="156.3986" y2="202.7323" gradientTransform="matrix(0.8563 -0.5166 0.5166 0.8563 -123.9946 234.8128)">
				<stop  offset="0" style="stop-color:#5CE596"/>
				<stop  offset="1" style="stop-color:#C5FF81"/>
			</linearGradient>
			
				<line style="fill:none;stroke:url(#SVGID_00000096057271997170212680000013866991529667323292_);stroke-width:2;stroke-linecap:round;stroke-miterlimit:10;" x1="115.517" y1="327.1" x2="127.123" y2="320.099"/>
			
				<linearGradient id="SVGID_00000167363592997092966930000012926297811344373935_" gradientUnits="userSpaceOnUse" x1="168.6053" y1="209.1238" x2="159.7448" y2="209.1238" gradientTransform="matrix(0.8563 -0.5166 0.5166 0.8563 -123.9946 234.8128)">
				<stop  offset="0" style="stop-color:#5CE596"/>
				<stop  offset="1" style="stop-color:#C5FF81"/>
			</linearGradient>
			
				<line style="fill:none;stroke:url(#SVGID_00000167363592997092966930000012926297811344373935_);stroke-width:2;stroke-linecap:round;stroke-miterlimit:10;" x1="121.684" y1="330.845" x2="127.559" y2="327.301"/>
			
				<linearGradient id="SVGID_00000029012460739474907890000016325605074779588797_" gradientUnits="userSpaceOnUse" x1="178.6436" y1="250.2629" x2="149.7059" y2="250.2629" gradientTransform="matrix(0.8563 -0.5166 0.5166 0.8563 -123.9946 234.8128)">
				<stop  offset="0" style="stop-color:#5CE596"/>
				<stop  offset="1" style="stop-color:#C5FF81"/>
			</linearGradient>
			
				<line style="fill:none;stroke:url(#SVGID_00000029012460739474907890000016325605074779588797_);stroke-width:2;stroke-linecap:round;stroke-miterlimit:10;" x1="134.341" y1="371.258" x2="157.408" y2="357.342"/>
			
				<linearGradient id="SVGID_00000101088895188427641330000001261489557030208943_" gradientUnits="userSpaceOnUse" x1="175.2973" y1="256.6544" x2="153.0519" y2="256.6544" gradientTransform="matrix(0.8563 -0.5166 0.5166 0.8563 -123.9946 234.8128)">
				<stop  offset="0" style="stop-color:#5CE596"/>
				<stop  offset="1" style="stop-color:#C5FF81"/>
			</linearGradient>
			
				<line style="fill:none;stroke:url(#SVGID_00000101088895188427641330000001261489557030208943_);stroke-width:2;stroke-linecap:round;stroke-miterlimit:10;" x1="140.508" y1="375.003" x2="157.844" y2="364.544"/>
			
				<linearGradient id="SVGID_00000165953605495668617270000006303396451782032315_" gradientUnits="userSpaceOnUse" x1="171.951" y1="263.0459" x2="156.3981" y2="263.0459" gradientTransform="matrix(0.8563 -0.5166 0.5166 0.8563 -123.9946 234.8128)">
				<stop  offset="0" style="stop-color:#5CE596"/>
				<stop  offset="1" style="stop-color:#C5FF81"/>
			</linearGradient>
			
				<line style="fill:none;stroke:url(#SVGID_00000165953605495668617270000006303396451782032315_);stroke-width:2;stroke-linecap:round;stroke-miterlimit:10;" x1="146.675" y1="378.747" x2="158.28" y2="371.746"/>
			
				<linearGradient id="SVGID_00000008108660869995206760000011177865948829706939_" gradientUnits="userSpaceOnUse" x1="168.6048" y1="269.4374" x2="159.7443" y2="269.4374" gradientTransform="matrix(0.8563 -0.5166 0.5166 0.8563 -123.9946 234.8128)">
				<stop  offset="0" style="stop-color:#5CE596"/>
				<stop  offset="1" style="stop-color:#C5FF81"/>
			</linearGradient>
			
				<line style="fill:none;stroke:url(#SVGID_00000008108660869995206760000011177865948829706939_);stroke-width:2;stroke-linecap:round;stroke-miterlimit:10;" x1="152.842" y1="382.491" x2="158.717" y2="378.947"/>
			
				<linearGradient id="SVGID_00000087392781879406914090000014056646611852777100_" gradientUnits="userSpaceOnUse" x1="557.8069" y1="411.7249" x2="535.5616" y2="411.7249" gradientTransform="matrix(-0.8563 0.5166 -0.5166 -0.8563 823.3951 428.9702)">
				<stop  offset="0" style="stop-color:#5CE596"/>
				<stop  offset="1" style="stop-color:#C5FF81"/>
			</linearGradient>
			
				<line style="fill:none;stroke:url(#SVGID_00000087392781879406914090000014056646611852777100_);stroke-width:2;stroke-linecap:round;stroke-miterlimit:10;" x1="151.24" y1="353.598" x2="133.904" y2="364.057"/>
			
				<linearGradient id="SVGID_00000139998111427991097370000005848392130032173705_" gradientUnits="userSpaceOnUse" x1="554.4607" y1="418.1163" x2="538.9078" y2="418.1163" gradientTransform="matrix(-0.8563 0.5166 -0.5166 -0.8563 823.3951 428.9702)">
				<stop  offset="0" style="stop-color:#5CE596"/>
				<stop  offset="1" style="stop-color:#C5FF81"/>
			</linearGradient>
			
				<line style="fill:none;stroke:url(#SVGID_00000139998111427991097370000005848392130032173705_);stroke-width:2;stroke-linecap:round;stroke-miterlimit:10;" x1="145.073" y1="349.854" x2="133.468" y2="356.855"/>
			
				<linearGradient id="SVGID_00000076577712299696851000000007409437376039029647_" gradientUnits="userSpaceOnUse" x1="551.1144" y1="424.5079" x2="542.2539" y2="424.5079" gradientTransform="matrix(-0.8563 0.5166 -0.5166 -0.8563 823.3951 428.9702)">
				<stop  offset="0" style="stop-color:#5CE596"/>
				<stop  offset="1" style="stop-color:#C5FF81"/>
			</linearGradient>
			
				<line style="fill:none;stroke:url(#SVGID_00000076577712299696851000000007409437376039029647_);stroke-width:2;stroke-linecap:round;stroke-miterlimit:10;" x1="138.906" y1="346.109" x2="133.031" y2="349.653"/>
			
				<linearGradient id="SVGID_00000155864719281421868540000017697015606182345614_" gradientUnits="userSpaceOnUse" x1="561.1528" y1="463.8132" x2="532.2151" y2="463.8132" gradientTransform="matrix(-0.8563 0.5166 -0.5166 -0.8563 884.8487 530.8356)">
				<stop  offset="0" style="stop-color:#5CE596"/>
				<stop  offset="1" style="stop-color:#C5FF81"/>
			</linearGradient>
			
				<line style="fill:none;stroke:url(#SVGID_00000155864719281421868540000017697015606182345614_);stroke-width:2;stroke-linecap:round;stroke-miterlimit:10;" x1="188.651" y1="409.131" x2="165.584" y2="423.047"/>
			
				<linearGradient id="SVGID_00000114034887676216796750000007807524143743620799_" gradientUnits="userSpaceOnUse" x1="557.8065" y1="470.2047" x2="535.5612" y2="470.2047" gradientTransform="matrix(-0.8563 0.5166 -0.5166 -0.8563 884.8487 530.8356)">
				<stop  offset="0" style="stop-color:#5CE596"/>
				<stop  offset="1" style="stop-color:#C5FF81"/>
			</linearGradient>
			
				<line style="fill:none;stroke:url(#SVGID_00000114034887676216796750000007807524143743620799_);stroke-width:2;stroke-linecap:round;stroke-miterlimit:10;" x1="182.484" y1="405.387" x2="165.147" y2="415.845"/>
			
				<linearGradient id="SVGID_00000167374537130656060540000013691563317848000142_" gradientUnits="userSpaceOnUse" x1="554.4603" y1="476.5961" x2="538.9073" y2="476.5961" gradientTransform="matrix(-0.8563 0.5166 -0.5166 -0.8563 884.8487 530.8356)">
				<stop  offset="0" style="stop-color:#5CE596"/>
				<stop  offset="1" style="stop-color:#C5FF81"/>
			</linearGradient>
			
				<line style="fill:none;stroke:url(#SVGID_00000167374537130656060540000013691563317848000142_);stroke-width:2;stroke-linecap:round;stroke-miterlimit:10;" x1="176.316" y1="401.642" x2="164.711" y2="408.644"/>
			
				<linearGradient id="SVGID_00000067951355676292253750000003384029464274038439_" gradientUnits="userSpaceOnUse" x1="551.114" y1="482.9876" x2="542.2535" y2="482.9876" gradientTransform="matrix(-0.8563 0.5166 -0.5166 -0.8563 884.8487 530.8356)">
				<stop  offset="0" style="stop-color:#5CE596"/>
				<stop  offset="1" style="stop-color:#C5FF81"/>
			</linearGradient>
			
				<line style="fill:none;stroke:url(#SVGID_00000067951355676292253750000003384029464274038439_);stroke-width:2;stroke-linecap:round;stroke-miterlimit:10;" x1="170.149" y1="397.898" x2="164.275" y2="401.442"/>
			
				<linearGradient id="SVGID_00000132062949160148921770000004780800269565206705_" gradientUnits="userSpaceOnUse" x1="142.004" y1="250.2631" x2="186.3459" y2="250.2631" gradientTransform="matrix(0.8563 -0.5166 0.5166 0.8563 -123.9946 234.8128)">
				<stop  offset="0" style="stop-color:#5CE596"/>
				<stop  offset="1" style="stop-color:#C5FF81"/>
			</linearGradient>
			
				<path style="fill:none;stroke:url(#SVGID_00000132062949160148921770000004780800269565206705_);stroke-width:6;stroke-miterlimit:10;" d="
				M129.279,299.677c16.506,27.36-16.326,47.167,0.18,74.527c16.506,27.36,49.338,7.553,65.843,34.913"/>
			
				<linearGradient id="SVGID_00000023261124821092120500000008474228113525422252_" gradientUnits="userSpaceOnUse" x1="524.6542" y1="250.1218" x2="568.9962" y2="250.1218" gradientTransform="matrix(-0.8563 0.5166 0.5166 0.8563 484.9072 -132.3689)">
				<stop  offset="0" style="stop-color:#5CE596"/>
				<stop  offset="1" style="stop-color:#C5FF81"/>
			</linearGradient>
			
				<path style="fill:none;stroke:url(#SVGID_00000023261124821092120500000008474228113525422252_);stroke-width:6;stroke-miterlimit:10;" d="
				M96.447,319.484c16.506,27.36,49.338,7.553,65.843,34.913c16.506,27.36-16.326,47.167,0.18,74.527"/>
		</g>
		<path style="fill:none;stroke:#FFFFFF;stroke-width:2;stroke-linecap:round;stroke-miterlimit:10;" d="M114.713,347.579
			c-3.158,10.708-4.429,21.704,3.009,34.034c6.938,11.501,16.384,15.757,26.504,18.063"/>
		
			<line style="fill:none;stroke:#FFFFFF;stroke-width:2;stroke-linecap:round;stroke-miterlimit:10;" x1="117.722" y1="381.613" x2="94.558" y2="395.241"/>
		<g>
			
				<ellipse transform="matrix(0.9239 -0.3827 0.3827 0.9239 -151.6387 56.352)" style="fill:#FFFFFF;" cx="65.831" cy="409.345" rx="37.802" ry="37.802"/>
			
				<linearGradient id="SVGID_00000137118995138504819100000000924073239936933300_" gradientUnits="userSpaceOnUse" x1="43.4499" y1="412.1654" x2="88.2117" y2="412.1654">
				<stop  offset="0" style="stop-color:#5CE596"/>
				<stop  offset="1" style="stop-color:#C5FF81"/>
			</linearGradient>
			<path style="fill:url(#SVGID_00000137118995138504819100000000924073239936933300_);" d="M76.017,392.149
				c-4.287,0.012-8.047,3.314-10.204,6.671c-2.175-3.346-5.947-6.627-10.234-6.616c-6.717,0.019-12.149,4.547-12.129,12.195
				c0.02,7.005,9.769,15.164,9.769,15.164l12.688,12.619l12.619-12.688c0,0,9.705-8.212,9.686-15.217
				C88.191,396.629,82.734,392.13,76.017,392.149z M77.156,413.595h-6.249c-0.584,0-1.109-0.355-1.327-0.898l-1.596-3.978
				l-2.648,9.004c-0.152,0.517-0.582,0.904-1.111,1.003c-0.087,0.016-0.174,0.024-0.26,0.024c-0.441,0-0.863-0.204-1.137-0.562
				l-3.505-4.593h-4.848c-0.789,0-1.43-0.64-1.43-1.43c0-0.79,0.64-1.43,1.43-1.43h5.555c0.446,0,0.866,0.208,1.137,0.562
				l2.223,2.912l3.015-10.253c0.172-0.584,0.695-0.996,1.303-1.025c0.619-0.008,1.169,0.331,1.396,0.896l2.771,6.908h5.282
				c0.79,0,1.43,0.64,1.43,1.43C78.586,412.955,77.946,413.595,77.156,413.595z"/>
		</g>
		<g>
			<text transform="matrix(1 0 0 1 157.4071 304.5234)" style="fill:#FFFFFF; font-family:'Aller-Bold'; font-size:13.4425px;">1.</text>
		</g>
		<g>
			<text transform="matrix(1 0 0 1 182.484 345.1681)" style="fill:#FFFFFF; font-family:'Aller-Bold'; font-size:13.4425px;">2.</text>
		</g>
		<g>
			<text transform="matrix(1 0 0 1 203.8847 388.4275)" style="fill:#FFFFFF; font-family:'Aller-Bold'; font-size:13.4425px;">3.</text>
		</g>
	</g>
	<g>
		
			<linearGradient id="SVGID_00000047756635206097125230000006801200324024737153_" gradientUnits="userSpaceOnUse" x1="59.4937" y1="99.1218" x2="241.7693" y2="154.0725">
			<stop  offset="0" style="stop-color:#5CE596"/>
			<stop  offset="1" style="stop-color:#C5FF81"/>
		</linearGradient>
		<path style="fill:url(#SVGID_00000047756635206097125230000006801200324024737153_);" d="M241.377,137.755v-18.472
			c1.765-0.419,3.082-1.996,3.082-3.889c0-2.213-1.794-4.007-4.007-4.007c-1.149,0-2.178,0.49-2.908,1.264l-16.179-9.341
			c0.108-0.363,0.184-0.74,0.184-1.138c0-2.213-1.794-4.007-4.007-4.007c-2.213,0-4.007,1.794-4.007,4.007
			c0,0.398,0.076,0.775,0.184,1.138l-16.174,9.339c-0.73-0.773-1.758-1.261-2.906-1.261c-0.001,0-0.002,0-0.004,0
			c-0.001,0-0.003,0-0.004,0c-1.147,0-2.175,0.488-2.906,1.261l-16.174-9.339c0.108-0.363,0.184-0.74,0.184-1.138
			c0-2.213-1.794-4.007-4.007-4.007c-2.213,0-4.007,1.794-4.007,4.007c0,0.398,0.076,0.775,0.184,1.138l-16.179,9.341
			c-0.023-0.024-0.052-0.042-0.076-0.066c-0.051-0.052-0.111-0.095-0.165-0.144c-0.137-0.124-0.274-0.247-0.427-0.352
			c-0.064-0.044-0.135-0.075-0.201-0.115c-0.158-0.095-0.315-0.191-0.486-0.264c-0.066-0.028-0.138-0.042-0.206-0.067
			c-0.18-0.066-0.36-0.132-0.552-0.171c-0.122-0.025-0.251-0.026-0.377-0.04c-0.139-0.015-0.275-0.044-0.418-0.044
			c-0.004,0-0.007,0.001-0.011,0.001c-0.004,0-0.007-0.001-0.011-0.001c-0.144,0-0.279,0.029-0.419,0.044
			c-0.125,0.014-0.255,0.015-0.377,0.04c-0.192,0.039-0.372,0.106-0.553,0.172c-0.067,0.025-0.139,0.039-0.204,0.067
			c-0.171,0.073-0.328,0.169-0.487,0.264c-0.066,0.04-0.137,0.071-0.201,0.115c-0.153,0.105-0.289,0.228-0.426,0.352
			c-0.054,0.05-0.115,0.093-0.166,0.145c-0.024,0.024-0.053,0.042-0.076,0.066l-16.179-9.341c0.108-0.363,0.184-0.74,0.184-1.138
			c0-0.002,0-0.003,0-0.005c0.004-0.07,0.021-0.137,0.021-0.208c0-1.893-1.317-3.47-3.082-3.889V79.598
			c1.765-0.419,3.082-1.996,3.082-3.889c0-2.213-1.794-4.007-4.007-4.007c-1.149,0-2.178,0.49-2.908,1.264l-16.179-9.341
			c0.108-0.363,0.184-0.74,0.184-1.139c0-2.213-1.794-4.007-4.006-4.007c-2.213,0-4.007,1.794-4.007,4.007
			c0,0.398,0.076,0.775,0.184,1.139l-16.179,9.341c-0.731-0.774-1.759-1.264-2.908-1.264c-2.213,0-4.007,1.794-4.007,4.007
			c0,1.893,1.317,3.469,3.081,3.889V98.07c-1.765,0.419-3.081,1.996-3.081,3.889c0,0.014,0.004,0.027,0.004,0.041
			c-0.003,0.058-0.017,0.112-0.017,0.171c0,0.398,0.076,0.775,0.184,1.138l-16.179,9.341c-0.731-0.774-1.759-1.264-2.908-1.264
			c-2.213,0-4.007,1.794-4.007,4.007c0,1.893,1.317,3.47,3.081,3.889v18.473c-1.765,0.419-3.081,1.996-3.081,3.889
			c0,2.213,1.794,4.007,4.007,4.007c1.08,0,2.056-0.432,2.777-1.127l16.311,9.417c-0.108,0.363-0.184,0.74-0.184,1.139
			c0,2.213,1.794,4.007,4.007,4.007c2.213,0,4.007-1.794,4.007-4.007c0-0.398-0.076-0.775-0.184-1.139l16.306-9.415
			c0.541,0.521,1.225,0.894,1.991,1.046c0.088,0.018,0.182,0.016,0.273,0.027c0.169,0.022,0.335,0.051,0.51,0.051
			c0.001,0,0.002-0.001,0.004-0.001c0.001,0,0.002,0.001,0.004,0.001c0.187,0,0.365-0.03,0.545-0.055
			c0.078-0.011,0.161-0.008,0.237-0.024c0.766-0.152,1.45-0.525,1.991-1.046l16.306,9.415c-0.108,0.363-0.184,0.74-0.184,1.139
			c0,2.213,1.794,4.007,4.007,4.007c2.213,0,4.007-1.794,4.007-4.007c0-0.398-0.076-0.775-0.184-1.139l16.311-9.417
			c0.721,0.695,1.697,1.127,2.777,1.127c0.004,0,0.007-0.001,0.011-0.001c0.004,0,0.007,0.001,0.011,0.001
			c1.08,0,2.056-0.432,2.777-1.127l16.311,9.417c-0.108,0.363-0.184,0.74-0.184,1.139c0,2.213,1.794,4.007,4.007,4.007
			c2.213,0,4.007-1.794,4.007-4.007c0-0.398-0.076-0.775-0.184-1.139l16.306-9.415c0.541,0.521,1.225,0.894,1.991,1.046
			c0.088,0.018,0.182,0.016,0.273,0.027c0.169,0.022,0.335,0.051,0.51,0.051c0.001,0,0.002-0.001,0.004-0.001
			c0.001,0,0.003,0.001,0.004,0.001c0.187,0,0.365-0.03,0.545-0.055c0.078-0.011,0.161-0.008,0.237-0.024
			c0.766-0.152,1.45-0.525,1.991-1.046l16.306,9.415c-0.108,0.363-0.184,0.74-0.184,1.139c0,2.213,1.794,4.007,4.007,4.007
			c2.213,0,4.007-1.794,4.007-4.007c0-0.398-0.076-0.775-0.184-1.139l16.311-9.417c0.72,0.695,1.696,1.127,2.777,1.127
			c2.213,0,4.007-1.794,4.007-4.007C244.459,139.75,243.142,138.173,241.377,137.755z M81.016,79.598
			c1.765-0.419,3.082-1.996,3.082-3.889c0-0.397-0.076-0.773-0.183-1.135l16.181-9.342c0.73,0.773,1.758,1.261,2.906,1.261
			c1.147,0,2.175-0.488,2.905-1.261l16.181,9.342c-0.108,0.362-0.183,0.738-0.183,1.135c0,1.893,1.317,3.469,3.081,3.889V98.07
			c-1.765,0.419-3.081,1.996-3.081,3.889c0,0.002,0.001,0.004,0.001,0.005c-0.004,0.07-0.021,0.136-0.021,0.207
			c0,0.398,0.076,0.775,0.184,1.138l-16.167,9.334c-0.012-0.012-0.027-0.021-0.038-0.034c-0.108-0.112-0.23-0.207-0.351-0.305
			c-0.081-0.067-0.156-0.14-0.243-0.201c-0.127-0.088-0.266-0.157-0.402-0.23c-0.097-0.052-0.188-0.113-0.29-0.157
			c-0.136-0.059-0.282-0.095-0.426-0.139c-0.113-0.035-0.221-0.081-0.339-0.105c-0.227-0.048-0.464-0.067-0.703-0.074
			c-0.037-0.001-0.071-0.011-0.108-0.011c-0.001,0-0.002,0-0.003,0c-0.004,0-0.007-0.001-0.01-0.001c-0.001,0-0.003,0-0.004,0
			c-0.001,0-0.003,0-0.004,0c-1.144,0-2.169,0.485-2.899,1.254l-16.178-9.34c0.107-0.36,0.182-0.734,0.182-1.129
			c0-0.013-0.004-0.025-0.004-0.038c0.003-0.059,0.017-0.115,0.017-0.175c0-1.893-1.317-3.47-3.082-3.889V79.598z M82.984,152.333
			c-0.73-0.773-1.758-1.261-2.905-1.261c-1.147,0-2.175,0.488-2.905,1.261l-16.237-9.374c0.145-0.414,0.239-0.852,0.239-1.316
			c0-1.893-1.317-3.47-3.082-3.889v-18.472c1.765-0.419,3.082-1.996,3.082-3.889c0-0.397-0.076-0.773-0.183-1.135l16.181-9.342
			c0.731,0.773,1.758,1.261,2.905,1.261c1.147,0,2.175-0.488,2.905-1.261l16.174,9.338c-0.108,0.363-0.184,0.74-0.184,1.138
			c0,0.833,0.266,1.596,0.701,2.235c0.003,0.004,0.005,0.008,0.008,0.011c0.135,0.197,0.286,0.38,0.453,0.549
			c0.018,0.019,0.035,0.038,0.053,0.056c0.156,0.152,0.324,0.29,0.504,0.415c0.03,0.022,0.058,0.047,0.089,0.067
			c0.201,0.132,0.411,0.249,0.634,0.344c0.104,0.045,0.217,0.071,0.325,0.107c0.105,0.034,0.205,0.077,0.314,0.103v18.473
			c-1.765,0.419-3.081,1.996-3.081,3.889c0,0.465,0.095,0.904,0.24,1.319L82.984,152.333z M128.796,152.333
			c-0.73-0.773-1.758-1.261-2.905-1.261s-2.175,0.488-2.905,1.261l-16.231-9.371c0.146-0.415,0.24-0.854,0.24-1.319
			c0-1.893-1.317-3.47-3.082-3.889v-18.468c0.873-0.204,1.626-0.697,2.175-1.368c0.015-0.018,0.029-0.035,0.044-0.053
			c0.122-0.154,0.231-0.315,0.33-0.487c0.017-0.029,0.032-0.059,0.048-0.088c0.093-0.172,0.176-0.348,0.244-0.534
			c0.008-0.023,0.014-0.046,0.021-0.069c0.14-0.408,0.232-0.838,0.232-1.294c0-0.252-0.037-0.493-0.087-0.729
			c-0.015-0.079-0.036-0.154-0.055-0.231c-0.016-0.059-0.025-0.12-0.043-0.178l16.167-9.334c0.73,0.77,1.755,1.256,2.9,1.256
			c1.147,0,2.175-0.488,2.905-1.261l16.181,9.342c-0.029,0.096-0.047,0.196-0.07,0.294c-0.004,0.017-0.009,0.034-0.012,0.051
			c-0.057,0.256-0.101,0.517-0.101,0.79c0,1.893,1.317,3.47,3.081,3.889v18.473c-1.765,0.419-3.081,1.996-3.081,3.889
			c0,0.463,0.094,0.902,0.239,1.316L128.796,152.333z M174.636,152.333c-0.73-0.773-1.758-1.261-2.906-1.261
			c-1.147,0-2.175,0.488-2.905,1.261l-16.237-9.374c0.145-0.414,0.239-0.852,0.239-1.316c0-1.893-1.317-3.47-3.082-3.889v-18.472
			c1.765-0.419,3.082-1.996,3.082-3.889c0-0.273-0.044-0.534-0.101-0.789c-0.004-0.018-0.009-0.034-0.012-0.052
			c-0.023-0.098-0.041-0.198-0.07-0.294l16.181-9.342c0.73,0.773,1.758,1.261,2.905,1.261c1.147,0,2.175-0.488,2.906-1.261
			l16.174,9.338c-0.108,0.363-0.184,0.74-0.184,1.138c0,1.893,1.317,3.47,3.081,3.889v18.473c-1.765,0.419-3.081,1.996-3.081,3.889
			c0,0.465,0.095,0.904,0.24,1.319L174.636,152.333z M239.527,137.755c-1.765,0.419-3.082,1.996-3.082,3.889
			c0,0.463,0.094,0.902,0.239,1.316l-16.237,9.374c-0.73-0.773-1.758-1.261-2.905-1.261s-2.175,0.488-2.905,1.261l-16.231-9.371
			c0.146-0.415,0.24-0.854,0.24-1.319c0-1.893-1.317-3.47-3.082-3.889v-18.472c1.765-0.419,3.082-1.996,3.082-3.889
			c0-0.198-0.031-0.388-0.058-0.578c0-0.001,0-0.002,0-0.002c-0.028-0.192-0.071-0.376-0.126-0.558l16.175-9.338
			c0.73,0.773,1.758,1.261,2.905,1.261s2.175-0.488,2.905-1.261l16.181,9.342c-0.108,0.362-0.183,0.738-0.183,1.135
			c0,1.893,1.317,3.47,3.082,3.889V137.755z"/>
		
			<linearGradient id="SVGID_00000127753440339556245750000014199713487118928307_" gradientUnits="userSpaceOnUse" x1="81.9197" y1="191.736" x2="264.1953" y2="246.6867">
			<stop  offset="0" style="stop-color:#5CE596"/>
			<stop  offset="1" style="stop-color:#C5FF81"/>
		</linearGradient>
		<path style="fill:url(#SVGID_00000127753440339556245750000014199713487118928307_);" d="M263.803,230.369v-18.472
			c1.765-0.419,3.082-1.996,3.082-3.889c0-2.213-1.794-4.007-4.007-4.007c-1.149,0-2.177,0.49-2.908,1.264l-16.179-9.341
			c0.108-0.363,0.184-0.74,0.184-1.139c0-2.213-1.794-4.007-4.006-4.007c-2.213,0-4.007,1.794-4.007,4.007
			c0,0.398,0.076,0.775,0.184,1.139l-16.174,9.339c-0.73-0.773-1.758-1.261-2.906-1.261c-0.001,0-0.002,0-0.004,0
			c-0.001,0-0.003,0-0.004,0c-1.147,0-2.175,0.488-2.906,1.261l-16.174-9.339c0.108-0.363,0.184-0.74,0.184-1.139
			c0-2.213-1.794-4.007-4.007-4.007c-2.213,0-4.007,1.794-4.007,4.007c0,0.398,0.076,0.775,0.184,1.139l-16.179,9.341
			c-0.023-0.025-0.052-0.042-0.076-0.066c-0.051-0.052-0.111-0.095-0.165-0.144c-0.137-0.124-0.274-0.247-0.427-0.352
			c-0.064-0.044-0.135-0.075-0.201-0.115c-0.158-0.095-0.315-0.191-0.486-0.264c-0.066-0.028-0.138-0.042-0.205-0.067
			c-0.18-0.066-0.36-0.132-0.552-0.171c-0.122-0.025-0.252-0.026-0.377-0.04c-0.139-0.015-0.274-0.044-0.418-0.044
			c-0.004,0-0.007,0.001-0.011,0.001c-0.004,0-0.007-0.001-0.011-0.001c-0.144,0-0.279,0.029-0.419,0.044
			c-0.126,0.014-0.255,0.015-0.377,0.04c-0.192,0.039-0.372,0.106-0.553,0.172c-0.067,0.025-0.139,0.039-0.204,0.067
			c-0.171,0.073-0.329,0.169-0.487,0.264c-0.066,0.04-0.137,0.071-0.201,0.115c-0.153,0.105-0.29,0.228-0.426,0.352
			c-0.054,0.05-0.115,0.092-0.166,0.145c-0.024,0.024-0.053,0.042-0.076,0.066l-16.179-9.341c0.108-0.363,0.184-0.74,0.184-1.139
			c0-0.002-0.001-0.003-0.001-0.005c0.004-0.07,0.021-0.137,0.021-0.208c0-1.893-1.317-3.47-3.082-3.889v-18.472
			c1.765-0.419,3.082-1.996,3.082-3.889c0-2.213-1.794-4.007-4.007-4.007c-1.149,0-2.178,0.49-2.908,1.264l-16.179-9.342
			c0.108-0.363,0.184-0.74,0.184-1.138c0-2.213-1.794-4.007-4.006-4.007c-2.213,0-4.007,1.794-4.007,4.007
			c0,0.398,0.076,0.775,0.184,1.138l-16.179,9.341c-0.731-0.775-1.759-1.264-2.908-1.264c-2.213,0-4.007,1.794-4.007,4.007
			c0,1.893,1.317,3.469,3.081,3.889v18.473c-1.765,0.419-3.081,1.996-3.081,3.889c0,0.014,0.004,0.027,0.004,0.041
			c-0.002,0.058-0.017,0.112-0.017,0.171c0,0.398,0.076,0.775,0.184,1.139l-16.179,9.341c-0.731-0.774-1.759-1.264-2.908-1.264
			c-2.213,0-4.007,1.794-4.007,4.007c0,1.893,1.317,3.47,3.081,3.889v18.473c-1.765,0.419-3.081,1.996-3.081,3.889
			c0,2.213,1.794,4.007,4.007,4.007c1.08,0,2.056-0.432,2.777-1.127l16.311,9.417c-0.108,0.363-0.184,0.74-0.184,1.139
			c0,2.213,1.794,4.007,4.006,4.007c2.213,0,4.007-1.794,4.007-4.007c0-0.398-0.076-0.775-0.184-1.139l16.306-9.415
			c0.541,0.521,1.225,0.894,1.991,1.046c0.088,0.018,0.183,0.016,0.273,0.027c0.169,0.022,0.335,0.051,0.51,0.051
			c0.001,0,0.002,0,0.004,0c0.001,0,0.003,0,0.004,0c0.187,0,0.365-0.03,0.545-0.055c0.078-0.011,0.161-0.008,0.237-0.024
			c0.766-0.152,1.45-0.525,1.991-1.046l16.306,9.415c-0.108,0.363-0.184,0.74-0.184,1.139c0,2.213,1.794,4.007,4.007,4.007
			c2.213,0,4.007-1.794,4.007-4.007c0-0.398-0.076-0.775-0.184-1.139l16.311-9.417c0.721,0.695,1.697,1.127,2.777,1.127
			c0.004,0,0.007-0.001,0.011-0.001c0.004,0,0.007,0.001,0.011,0.001c1.08,0,2.056-0.432,2.777-1.127l16.311,9.417
			c-0.108,0.363-0.184,0.74-0.184,1.139c0,2.213,1.794,4.007,4.007,4.007c2.213,0,4.007-1.794,4.007-4.007
			c0-0.398-0.076-0.775-0.184-1.139l16.306-9.415c0.541,0.521,1.225,0.894,1.991,1.046c0.088,0.018,0.182,0.016,0.273,0.027
			c0.169,0.022,0.335,0.051,0.51,0.051c0.001,0,0.003,0,0.004,0c0.001,0,0.002,0,0.004,0c0.187,0,0.365-0.03,0.545-0.055
			c0.078-0.011,0.161-0.008,0.237-0.024c0.766-0.152,1.45-0.525,1.991-1.046l16.306,9.415c-0.108,0.363-0.184,0.74-0.184,1.139
			c0,2.213,1.794,4.007,4.007,4.007c2.213,0,4.006-1.794,4.006-4.007c0-0.398-0.076-0.775-0.184-1.139l16.31-9.417
			c0.721,0.695,1.697,1.127,2.777,1.127c2.213,0,4.007-1.794,4.007-4.007C266.885,232.365,265.568,230.788,263.803,230.369z
			 M103.442,172.212c1.765-0.419,3.082-1.996,3.082-3.889c0-0.397-0.076-0.773-0.183-1.135l16.181-9.342
			c0.73,0.773,1.758,1.261,2.906,1.261c1.147,0,2.175-0.488,2.905-1.261l16.181,9.342c-0.108,0.362-0.183,0.738-0.183,1.135
			c0,1.893,1.317,3.469,3.081,3.889v18.473c-1.765,0.419-3.081,1.996-3.081,3.889c0,0.002,0.001,0.003,0.001,0.005
			c-0.004,0.07-0.021,0.136-0.021,0.207c0,0.398,0.076,0.775,0.184,1.139l-16.167,9.334c-0.012-0.012-0.027-0.021-0.039-0.033
			c-0.108-0.112-0.23-0.207-0.351-0.305c-0.081-0.067-0.157-0.14-0.243-0.201c-0.127-0.088-0.266-0.157-0.402-0.23
			c-0.097-0.052-0.188-0.113-0.29-0.157c-0.136-0.059-0.282-0.095-0.426-0.139c-0.113-0.035-0.221-0.081-0.339-0.105
			c-0.227-0.048-0.464-0.067-0.703-0.074c-0.037-0.001-0.071-0.011-0.108-0.011c-0.001,0-0.002,0-0.003,0
			c-0.004,0-0.007-0.001-0.01-0.001c-0.001,0-0.002,0-0.004,0c-0.001,0-0.002,0-0.004,0c-1.144,0-2.169,0.485-2.899,1.254
			l-16.178-9.34c0.107-0.36,0.182-0.734,0.182-1.129c0-0.013-0.004-0.025-0.004-0.038c0.003-0.059,0.017-0.115,0.017-0.175
			c0-1.893-1.317-3.47-3.082-3.889V172.212z M105.41,244.947c-0.73-0.773-1.758-1.261-2.905-1.261c-1.147,0-2.175,0.488-2.905,1.261
			l-16.237-9.374c0.145-0.414,0.239-0.852,0.239-1.316c0-1.893-1.317-3.47-3.082-3.889v-18.472c1.765-0.419,3.082-1.996,3.082-3.889
			c0-0.397-0.076-0.773-0.183-1.135l16.181-9.342c0.73,0.773,1.758,1.261,2.905,1.261c1.147,0,2.175-0.488,2.905-1.261l16.174,9.338
			c-0.108,0.363-0.184,0.74-0.184,1.138c0,0.833,0.266,1.596,0.701,2.235c0.003,0.004,0.005,0.008,0.008,0.012
			c0.135,0.197,0.286,0.38,0.453,0.549c0.018,0.019,0.035,0.038,0.053,0.056c0.156,0.152,0.324,0.29,0.504,0.415
			c0.03,0.021,0.058,0.046,0.089,0.067c0.201,0.132,0.411,0.249,0.634,0.344c0.104,0.045,0.217,0.071,0.325,0.107
			c0.105,0.034,0.205,0.077,0.314,0.103v18.473c-1.765,0.419-3.081,1.996-3.081,3.889c0,0.465,0.095,0.904,0.24,1.319
			L105.41,244.947z M151.222,244.947c-0.73-0.773-1.758-1.261-2.905-1.261c-1.147,0-2.175,0.488-2.905,1.261l-16.231-9.371
			c0.145-0.415,0.24-0.855,0.24-1.319c0-1.893-1.317-3.47-3.082-3.889v-18.468c0.873-0.204,1.626-0.697,2.175-1.368
			c0.015-0.018,0.029-0.035,0.044-0.053c0.122-0.154,0.231-0.315,0.33-0.487c0.017-0.029,0.032-0.059,0.048-0.088
			c0.093-0.172,0.176-0.348,0.244-0.534c0.008-0.023,0.014-0.046,0.021-0.069c0.14-0.408,0.232-0.838,0.232-1.294
			c0-0.252-0.037-0.492-0.087-0.729c-0.014-0.079-0.036-0.154-0.055-0.232c-0.016-0.059-0.025-0.12-0.043-0.178l16.167-9.334
			c0.73,0.77,1.755,1.256,2.9,1.256c1.147,0,2.175-0.488,2.905-1.261l16.181,9.342c-0.029,0.096-0.047,0.196-0.07,0.294
			c-0.004,0.017-0.009,0.033-0.012,0.051c-0.057,0.256-0.101,0.517-0.101,0.79c0,1.893,1.317,3.47,3.081,3.889v18.473
			c-1.765,0.419-3.081,1.996-3.081,3.889c0,0.463,0.094,0.901,0.239,1.316L151.222,244.947z M197.062,244.947
			c-0.73-0.773-1.758-1.261-2.905-1.261c-1.147,0-2.175,0.488-2.905,1.261l-16.237-9.374c0.145-0.414,0.239-0.852,0.239-1.316
			c0-1.893-1.317-3.47-3.082-3.889v-18.472c1.765-0.419,3.082-1.996,3.082-3.889c0-0.273-0.044-0.534-0.101-0.789
			c-0.004-0.018-0.008-0.035-0.012-0.052c-0.023-0.098-0.041-0.198-0.07-0.294l16.181-9.342c0.73,0.773,1.758,1.261,2.905,1.261
			c1.147,0,2.175-0.488,2.905-1.261l16.174,9.338c-0.108,0.363-0.184,0.74-0.184,1.138c0,1.893,1.317,3.47,3.081,3.889v18.473
			c-1.765,0.419-3.081,1.996-3.081,3.889c0,0.465,0.095,0.904,0.24,1.319L197.062,244.947z M261.953,230.369
			c-1.765,0.419-3.082,1.996-3.082,3.889c0,0.463,0.095,0.901,0.239,1.316l-16.237,9.374c-0.73-0.773-1.758-1.261-2.905-1.261
			c-1.147,0-2.175,0.488-2.905,1.261l-16.231-9.371c0.145-0.415,0.24-0.855,0.24-1.319c0-1.893-1.317-3.47-3.082-3.889v-18.472
			c1.765-0.419,3.082-1.996,3.082-3.889c0-0.198-0.031-0.388-0.058-0.578c0-0.001,0-0.002,0-0.003
			c-0.028-0.192-0.071-0.376-0.126-0.558l16.174-9.338c0.73,0.773,1.758,1.261,2.905,1.261c1.147,0,2.175-0.488,2.905-1.261
			l16.181,9.342c-0.108,0.362-0.183,0.738-0.183,1.135c0,1.893,1.317,3.47,3.082,3.889V230.369z"/>
	</g>
	<g>
		<path style="fill:#FFFFFF;" d="M447.771,282.216H259.823c-1.512,0-2.738-1.226-2.738-2.738V165.293
			c0-1.512,1.226-2.738,2.738-2.738h187.948c1.512,0,2.738,1.226,2.738,2.738v114.184
			C450.509,280.99,449.283,282.216,447.771,282.216z"/>
		<path style="fill:#241F33;" d="M450.509,173.277H257.085v-7.984c0-1.512,1.226-2.738,2.738-2.738h187.948
			c1.512,0,2.738,1.226,2.738,2.738V173.277z"/>
		<path style="fill:#FFFFFF;" d="M264.167,167.916c0,0.896-0.726,1.622-1.621,1.622c-0.896,0-1.622-0.726-1.622-1.622
			c0-0.895,0.726-1.621,1.622-1.621C263.441,166.294,264.167,167.02,264.167,167.916z"/>
		<path style="fill:#FFFFFF;" d="M269.509,167.916c0,0.896-0.726,1.622-1.622,1.622c-0.896,0-1.621-0.726-1.621-1.622
			c0-0.895,0.726-1.621,1.621-1.621C268.783,166.294,269.509,167.02,269.509,167.916z"/>
		<path style="fill:#FFFFFF;" d="M274.851,167.916c0,0.896-0.726,1.622-1.622,1.622c-0.896,0-1.622-0.726-1.622-1.622
			c0-0.895,0.726-1.621,1.622-1.621C274.124,166.294,274.851,167.02,274.851,167.916z"/>
		<g>
			<g>
				<g>
					<g>
						
							<linearGradient id="SVGID_00000030460080986369014370000018432432429895828879_" gradientUnits="userSpaceOnUse" x1="357.4858" y1="253.699" x2="357.4858" y2="186.8951">
							<stop  offset="0" style="stop-color:#5CE596"/>
							<stop  offset="1" style="stop-color:#C5FF81"/>
						</linearGradient>
						<path style="fill:url(#SVGID_00000030460080986369014370000018432432429895828879_);" d="M364.099,186.895h-13.226
							c-0.97,0-1.757,0.786-1.757,1.757c0,0.97,0.786,1.757,1.757,1.757h0.393v57.07c0,3.436,2.785,6.22,6.22,6.22
							c3.436,0,6.22-2.785,6.22-6.22v-57.07h0.393c0.97,0,1.757-0.786,1.757-1.757C365.856,187.682,365.069,186.895,364.099,186.895
							z"/>
						<path style="fill:#FFFFFF;" d="M357.486,250.452L357.486,250.452c-1.895,0-3.431-1.536-3.431-3.431v-29.858h6.862v29.858
							C360.917,248.916,359.381,250.452,357.486,250.452z"/>
					</g>
				</g>
				<g>
					<g>
						
							<linearGradient id="SVGID_00000003066144009734365320000014787215800595975608_" gradientUnits="userSpaceOnUse" x1="382.4557" y1="253.699" x2="382.4557" y2="186.8951">
							<stop  offset="0" style="stop-color:#5CE596"/>
							<stop  offset="1" style="stop-color:#C5FF81"/>
						</linearGradient>
						<path style="fill:url(#SVGID_00000003066144009734365320000014787215800595975608_);" d="M389.069,186.895h-13.226
							c-0.97,0-1.757,0.786-1.757,1.757c0,0.97,0.786,1.757,1.757,1.757h0.393v57.07c0,3.436,2.785,6.22,6.22,6.22
							c3.436,0,6.22-2.785,6.22-6.22v-57.07h0.393c0.97,0,1.757-0.786,1.757-1.757C390.826,187.682,390.039,186.895,389.069,186.895
							z"/>
						<path style="fill:#FFFFFF;" d="M382.456,250.452L382.456,250.452c-1.895,0-3.431-1.536-3.431-3.431v-39.629h6.862v39.629
							C385.887,248.916,384.351,250.452,382.456,250.452z"/>
					</g>
				</g>
				<g>
					<g>
						
							<linearGradient id="SVGID_00000043452573835198734150000013621479866752089241_" gradientUnits="userSpaceOnUse" x1="407.4258" y1="253.699" x2="407.4258" y2="186.8951">
							<stop  offset="0" style="stop-color:#5CE596"/>
							<stop  offset="1" style="stop-color:#C5FF81"/>
						</linearGradient>
						<path style="fill:url(#SVGID_00000043452573835198734150000013621479866752089241_);" d="M414.039,186.895h-13.226
							c-0.97,0-1.757,0.786-1.757,1.757c0,0.97,0.786,1.757,1.757,1.757h0.393v57.07c0,3.436,2.785,6.22,6.22,6.22
							s6.22-2.785,6.22-6.22v-57.07h0.393c0.97,0,1.757-0.786,1.757-1.757C415.796,187.682,415.009,186.895,414.039,186.895z"/>
						<path style="fill:#FFFFFF;" d="M407.426,250.452L407.426,250.452c-1.895,0-3.431-1.536-3.431-3.431v-12.818h6.862v12.818
							C410.857,248.916,409.32,250.452,407.426,250.452z"/>
					</g>
				</g>
				<path style="fill:#2E4153;" d="M425.878,201.286v9.656h-86.845v-9.656c0-0.77-0.625-1.395-1.395-1.395l0,0
					c-0.77,0-1.395,0.624-1.395,1.395v63.028c0,2.057,1.668,3.725,3.725,3.725h84.975c2.057,0,3.725-1.668,3.725-3.725v-63.028
					c0-0.77-0.625-1.395-1.395-1.395l0,0C426.503,199.891,425.878,200.515,425.878,201.286z M425.878,260.366h-86.845v-44.841
					h86.845V260.366z"/>
			</g>
		</g>
		<g>
			
				<line style="fill:none;stroke:#2E4153;stroke-width:2.7871;stroke-miterlimit:10;" x1="267.887" y1="196.939" x2="289.884" y2="196.939"/>
			
				<line style="fill:none;stroke:#2E4153;stroke-width:2.7871;stroke-miterlimit:10;" x1="267.887" y1="208.291" x2="303.369" y2="208.291"/>
			
				<line style="fill:none;stroke:#2E4153;stroke-width:2.7871;stroke-miterlimit:10;" x1="267.887" y1="219.643" x2="309.831" y2="219.643"/>
			
				<line style="fill:none;stroke:#2E4153;stroke-width:2.7871;stroke-miterlimit:10;" x1="267.887" y1="230.995" x2="303.369" y2="230.995"/>
			
				<line style="fill:none;stroke:#2E4153;stroke-width:2.7871;stroke-miterlimit:10;" x1="267.887" y1="242.347" x2="296.136" y2="242.347"/>
			
				<line style="fill:none;stroke:#2E4153;stroke-width:2.7871;stroke-miterlimit:10;" x1="267.887" y1="253.699" x2="312.359" y2="253.699"/>
		</g>
	</g>
	<g>
		
			<linearGradient id="SVGID_00000100362306064482536510000012646666858165467535_" gradientUnits="userSpaceOnUse" x1="378.6239" y1="115.0325" x2="446.6369" y2="115.0325">
			<stop  offset="0" style="stop-color:#5CE596"/>
			<stop  offset="1" style="stop-color:#C5FF81"/>
		</linearGradient>
		<path style="fill:url(#SVGID_00000100362306064482536510000012646666858165467535_);" d="M446.637,115.032
			c0-3.66-7.834-5.873-17.045-7.026c5.698-7.328,9.674-14.432,7.085-17.02c-2.589-2.589-9.693,1.387-17.02,7.085
			c-1.153-9.211-3.365-17.045-7.026-17.045c-3.66,0-5.873,7.833-7.026,17.044c-7.328-5.699-14.432-9.674-17.02-7.084
			c-2.588,2.588,1.387,9.692,7.085,17.02c-9.211,1.152-17.046,3.365-17.046,7.026c0,3.661,7.834,5.874,17.046,7.026
			c-5.698,7.328-9.673,14.432-7.085,17.02c0.554,0.554,1.315,0.807,2.241,0.807c3.4,0,9.02-3.413,14.779-7.891
			c1.152,9.211,3.365,17.044,7.026,17.044c3.661,0,5.873-7.833,7.026-17.044c5.759,4.478,11.379,7.891,14.779,7.891
			c0.926,0,1.687-0.253,2.241-0.808c2.588-2.588-1.387-9.692-7.086-17.02C438.803,120.906,446.637,118.693,446.637,115.032z
			 M434.362,92.118c0.407,0,0.71,0.094,0.9,0.284c1.219,1.219-1.505,7.151-7.988,15.34c-2.255-0.235-4.558-0.41-6.82-0.532
			c-0.122-2.263-0.297-4.566-0.532-6.822C426.839,94.911,432.146,92.118,434.362,92.118z M418.668,115.032
			c0,0.836-0.009,1.666-0.022,2.492c-0.57,0.588-1.149,1.18-1.747,1.778c-0.598,0.598-1.189,1.177-1.778,1.747
			c-0.826,0.013-1.655,0.022-2.492,0.022c-0.836,0-1.666-0.008-2.492-0.022c-0.588-0.57-1.18-1.149-1.778-1.747
			c-0.598-0.598-1.177-1.19-1.747-1.778c-0.013-0.825-0.022-1.655-0.022-2.492c0-0.837,0.009-1.666,0.022-2.492
			c0.57-0.588,1.149-1.18,1.747-1.778c0.598-0.598,1.189-1.177,1.777-1.746c0.826-0.013,1.656-0.022,2.492-0.022
			c0.837,0,1.667,0.009,2.493,0.022c0.588,0.569,1.179,1.149,1.777,1.746c0.598,0.598,1.177,1.19,1.747,1.778
			C418.66,113.366,418.668,114.196,418.668,115.032z M418.315,109.348c-0.085-0.085-0.174-0.171-0.259-0.257
			c0.166,0.006,0.333,0.012,0.498,0.018c0.007,0.166,0.013,0.332,0.019,0.499C418.487,109.522,418.4,109.433,418.315,109.348z
			 M415.941,107.033c-0.598-0.571-1.211-1.146-1.837-1.723c1.368-1.23,2.697-2.375,3.978-3.435c0.158,1.69,0.286,3.439,0.381,5.24
			C417.612,107.08,416.769,107.053,415.941,107.033z M412.995,106.994c-0.122,0-0.244-0.001-0.365-0.001
			c-0.121,0-0.243,0.001-0.364,0.001c0.121-0.113,0.243-0.227,0.364-0.339C412.751,106.767,412.873,106.881,412.995,106.994z
			 M409.319,107.033c-0.828,0.02-1.671,0.047-2.523,0.081c0.095-1.8,0.223-3.55,0.382-5.24c1.282,1.06,2.611,2.206,3.978,3.435
			C410.53,105.888,409.918,106.463,409.319,107.033z M407.205,109.091c-0.086,0.085-0.175,0.172-0.259,0.257
			c-0.085,0.085-0.172,0.174-0.257,0.26c0.006-0.167,0.012-0.333,0.018-0.499C406.873,109.103,407.039,109.097,407.205,109.091z
			 M404.631,111.722c-0.57,0.598-1.145,1.21-1.722,1.836c-1.229-1.367-2.377-2.697-3.436-3.978c1.69-0.158,3.439-0.286,5.239-0.381
			C404.678,110.051,404.651,110.894,404.631,111.722z M404.592,114.666c0,0.122-0.001,0.245-0.001,0.366
			c0,0.121,0.001,0.244,0.001,0.366c-0.114-0.123-0.224-0.244-0.337-0.366C404.368,114.91,404.478,114.789,404.592,114.666z
			 M404.631,118.343c0.02,0.828,0.047,1.671,0.081,2.523c-1.8-0.095-3.55-0.223-5.24-0.381c1.059-1.281,2.208-2.611,3.436-3.978
			C403.487,117.133,404.061,117.745,404.631,118.343z M406.689,120.457c0.085,0.086,0.172,0.175,0.257,0.26
			c0.085,0.085,0.173,0.172,0.259,0.257c-0.166-0.006-0.333-0.012-0.498-0.018C406.701,120.79,406.695,120.623,406.689,120.457z
			 M409.318,123.031c0.598,0.57,1.211,1.146,1.837,1.723c-1.367,1.228-2.696,2.377-3.977,3.435c-0.158-1.69-0.287-3.439-0.382-5.24
			C407.648,122.984,408.491,123.012,409.318,123.031z M412.264,123.071c0.122,0,0.245,0.001,0.366,0.001
			c0.121,0,0.244,0,0.366-0.001c-0.123,0.114-0.244,0.224-0.366,0.338C412.508,123.295,412.387,123.185,412.264,123.071z
			 M415.943,123.031c0.827-0.02,1.67-0.047,2.521-0.082c-0.095,1.801-0.223,3.55-0.381,5.241c-1.281-1.059-2.61-2.208-3.977-3.436
			C414.732,124.177,415.345,123.602,415.943,123.031z M418.055,120.974c0.086-0.086,0.174-0.172,0.259-0.257
			c0.085-0.085,0.172-0.174,0.258-0.26c-0.006,0.166-0.012,0.333-0.019,0.498C418.388,120.962,418.222,120.968,418.055,120.974z
			 M420.63,118.343c0.57-0.598,1.145-1.21,1.721-1.836c1.229,1.367,2.377,2.697,3.436,3.978c-1.69,0.158-3.439,0.286-5.24,0.381
			C420.582,120.014,420.61,119.171,420.63,118.343z M420.668,115.398c0.001-0.122,0.001-0.245,0.001-0.366
			c0-0.121,0-0.244-0.001-0.366c0.115,0.123,0.224,0.244,0.338,0.366C420.893,115.155,420.783,115.275,420.668,115.398z
			 M420.63,111.722c-0.02-0.828-0.047-1.671-0.082-2.523c1.8,0.095,3.55,0.223,5.24,0.381c-1.059,1.281-2.208,2.61-3.436,3.977
			C421.774,112.932,421.2,112.32,420.63,111.722z M408.632,91.903c1.494-7.006,3.216-8.876,3.998-8.876
			c0.782,0,2.505,1.869,3.998,8.876c0.487,2.283,0.892,4.847,1.211,7.614c-1.764,1.431-3.519,2.936-5.208,4.453
			c-1.69-1.517-3.445-3.022-5.209-4.453C407.74,96.749,408.145,94.185,408.632,91.903z M389.999,92.401
			c0.189-0.189,0.492-0.284,0.9-0.284c2.216,0,7.523,2.793,14.44,8.27c-0.235,2.255-0.41,4.559-0.532,6.822
			c-2.263,0.122-4.565,0.297-6.82,0.532C391.504,99.552,388.78,93.62,389.999,92.401z M389.5,119.031
			c-7.006-1.494-8.875-3.216-8.875-3.998c0-0.782,1.869-2.504,8.875-3.998c2.283-0.487,4.848-0.892,7.615-1.21
			c1.431,1.764,2.936,3.519,4.453,5.209c-1.517,1.689-3.022,3.444-4.453,5.209C394.348,119.923,391.783,119.518,389.5,119.031z
			 M389.999,137.664c-1.219-1.219,1.504-7.151,7.987-15.34c2.255,0.235,4.558,0.41,6.82,0.532c0.122,2.262,0.297,4.566,0.532,6.821
			C397.151,136.159,391.219,138.882,389.999,137.664z M416.629,138.162c-1.494,7.006-3.216,8.876-3.998,8.876
			c-0.782,0-2.504-1.869-3.998-8.876c-0.487-2.282-0.892-4.846-1.21-7.612c1.764-1.431,3.519-2.938,5.208-4.455
			c1.689,1.517,3.444,3.024,5.208,4.455C417.521,133.316,417.115,135.88,416.629,138.162z M435.262,137.663
			c-1.221,1.221-7.153-1.503-15.34-7.986c0.235-2.255,0.41-4.559,0.532-6.821c2.262-0.122,4.565-0.297,6.82-0.532
			C433.757,130.513,436.481,136.445,435.262,137.663z M435.761,119.031c-2.283,0.487-4.848,0.892-7.615,1.21
			c-1.431-1.764-2.936-3.519-4.453-5.209c1.517-1.689,3.022-3.445,4.453-5.209c2.767,0.318,5.332,0.723,7.615,1.21
			c7.006,1.494,8.875,3.216,8.875,3.998C444.636,115.814,442.767,117.537,435.761,119.031z"/>
		<path style="fill:#241F33;" d="M412.63,111.321c-2.05,0-3.711,1.662-3.711,3.712c0,2.05,1.662,3.712,3.711,3.712
			c2.05,0,3.712-1.662,3.712-3.712C416.342,112.982,414.68,111.321,412.63,111.321z"/>
	</g>
	<g>
		
			<linearGradient id="SVGID_00000052786863451959000740000008898133086010589861_" gradientUnits="userSpaceOnUse" x1="249.2696" y1="427.5652" x2="306.9096" y2="427.5652">
			<stop  offset="0" style="stop-color:#5CE596"/>
			<stop  offset="1" style="stop-color:#C5FF81"/>
		</linearGradient>
		<path style="fill:url(#SVGID_00000052786863451959000740000008898133086010589861_);" d="M306.91,427.565
			c0-3.102-6.639-4.978-14.446-5.954c4.829-6.21,8.198-12.231,6.005-14.424c-2.194-2.194-8.214,1.175-14.425,6.004
			c-0.977-7.806-2.852-14.445-5.954-14.445c-3.102,0-4.978,6.639-5.954,14.445c-6.21-4.829-12.231-8.199-14.424-6.004
			c-2.194,2.194,1.175,8.214,6.005,14.424c-7.807,0.977-14.446,2.852-14.446,5.954c0,3.102,6.639,4.978,14.446,5.955
			c-4.829,6.21-8.198,12.231-6.005,14.425c0.47,0.47,1.115,0.684,1.899,0.684c2.881,0,7.645-2.892,12.525-6.688
			c0.977,7.806,2.852,14.444,5.954,14.444c3.102,0,4.978-6.639,5.954-14.445c4.881,3.795,9.644,6.688,12.525,6.688
			c0.785,0,1.43-0.215,1.9-0.684c2.193-2.194-1.176-8.214-6.005-14.424C300.27,432.543,306.91,430.667,306.91,427.565z
			 M296.507,408.145c0.345,0,0.602,0.08,0.763,0.24c1.033,1.033-1.275,6.06-6.77,13c-1.911-0.199-3.863-0.348-5.78-0.451
			c-0.103-1.918-0.252-3.87-0.451-5.781C290.132,410.512,294.629,408.145,296.507,408.145z M283.207,427.565
			c0,0.709-0.007,1.412-0.019,2.112c-0.483,0.499-0.973,1-1.48,1.507c-0.507,0.507-1.008,0.997-1.507,1.48
			c-0.7,0.011-1.403,0.018-2.112,0.018c-0.709,0-1.412-0.007-2.112-0.018c-0.498-0.483-1-0.973-1.507-1.48s-0.997-1.008-1.48-1.507
			c-0.011-0.699-0.018-1.403-0.018-2.112s0.007-1.412,0.018-2.112c0.483-0.499,0.973-1,1.48-1.507
			c0.507-0.506,1.008-0.997,1.506-1.48c0.7-0.011,1.403-0.019,2.112-0.019c0.709,0,1.413,0.008,2.112,0.019
			c0.498,0.482,0.999,0.973,1.506,1.48c0.507,0.507,0.997,1.008,1.48,1.507C283.199,426.153,283.207,426.856,283.207,427.565z
			 M282.907,422.748c-0.072-0.072-0.147-0.145-0.22-0.218c0.141,0.005,0.282,0.01,0.422,0.016c0.006,0.141,0.011,0.281,0.016,0.422
			C283.053,422.895,282.979,422.82,282.907,422.748z M280.896,420.786c-0.507-0.483-1.026-0.971-1.557-1.46
			c1.159-1.042,2.285-2.013,3.372-2.911c0.134,1.432,0.243,2.915,0.323,4.441C282.311,420.826,281.597,420.803,280.896,420.786z
			 M278.398,420.753c-0.103,0-0.207-0.001-0.309-0.001c-0.102,0-0.206,0.001-0.309,0.001c0.103-0.096,0.206-0.192,0.309-0.287
			C278.192,420.56,278.295,420.657,278.398,420.753z M275.284,420.786c-0.702,0.017-1.416,0.04-2.138,0.069
			c0.08-1.526,0.189-3.009,0.323-4.441c1.086,0.898,2.213,1.869,3.372,2.911C276.31,419.815,275.791,420.303,275.284,420.786z
			 M273.492,422.53c-0.073,0.072-0.148,0.146-0.22,0.218c-0.072,0.072-0.146,0.147-0.218,0.22c0.005-0.141,0.01-0.282,0.016-0.422
			C273.21,422.54,273.351,422.535,273.492,422.53z M271.31,424.759c-0.483,0.507-0.97,1.026-1.459,1.556
			c-1.041-1.158-2.014-2.285-2.912-3.371c1.432-0.134,2.915-0.243,4.44-0.323C271.35,423.344,271.327,424.058,271.31,424.759z
			 M271.277,427.255c0,0.103-0.001,0.207-0.001,0.31c0,0.103,0.001,0.207,0.001,0.31c-0.097-0.104-0.19-0.207-0.286-0.31
			C271.087,427.461,271.18,427.359,271.277,427.255z M271.31,430.371c0.017,0.702,0.04,1.416,0.069,2.138
			c-1.526-0.08-3.008-0.189-4.44-0.323c0.898-1.086,1.871-2.213,2.912-3.371C270.34,429.345,270.827,429.864,271.31,430.371z
			 M273.054,432.162c0.072,0.073,0.146,0.148,0.218,0.22c0.072,0.072,0.147,0.146,0.22,0.218c-0.141-0.005-0.282-0.01-0.422-0.016
			C273.064,432.444,273.059,432.303,273.054,432.162z M275.282,434.344c0.507,0.483,1.026,0.971,1.557,1.46
			c-1.158,1.041-2.285,2.014-3.37,2.912c-0.134-1.432-0.243-2.915-0.323-4.44C273.867,434.305,274.581,434.328,275.282,434.344z
			 M277.779,434.377c0.103,0,0.208,0.001,0.31,0.001c0.103,0,0.207,0,0.31-0.001c-0.104,0.097-0.207,0.19-0.31,0.286
			C277.986,434.568,277.883,434.474,277.779,434.377z M280.897,434.344c0.701-0.017,1.415-0.04,2.137-0.069
			c-0.08,1.526-0.189,3.009-0.323,4.441c-1.085-0.898-2.212-1.871-3.37-2.912C279.871,435.315,280.39,434.828,280.897,434.344z
			 M282.687,432.6c0.073-0.072,0.148-0.146,0.22-0.218c0.072-0.072,0.146-0.147,0.218-0.22c-0.005,0.141-0.01,0.282-0.016,0.422
			C282.969,432.59,282.828,432.595,282.687,432.6z M284.869,430.371c0.483-0.507,0.97-1.025,1.459-1.556
			c1.041,1.158,2.015,2.285,2.912,3.371c-1.432,0.134-2.915,0.243-4.441,0.323C284.829,431.787,284.852,431.072,284.869,430.371z
			 M284.902,427.875c0-0.104,0.001-0.208,0.001-0.31c0-0.103,0-0.207-0.001-0.31c0.097,0.104,0.19,0.206,0.286,0.31
			C285.092,427.669,284.999,427.771,284.902,427.875z M284.869,424.759c-0.017-0.701-0.04-1.416-0.069-2.138
			c1.526,0.08,3.009,0.189,4.441,0.323c-0.898,1.085-1.871,2.212-2.912,3.371C285.839,425.785,285.352,425.266,284.869,424.759z
			 M274.701,407.963c1.266-5.938,2.725-7.522,3.389-7.522c0.663,0,2.122,1.584,3.389,7.522c0.413,1.935,0.756,4.108,1.026,6.453
			c-1.495,1.213-2.982,2.488-4.414,3.774c-1.432-1.286-2.919-2.561-4.415-3.774C273.945,412.07,274.288,409.897,274.701,407.963z
			 M258.91,408.385c0.161-0.16,0.417-0.24,0.763-0.24c1.878,0,6.376,2.367,12.238,7.008c-0.199,1.911-0.348,3.863-0.451,5.781
			c-1.917,0.103-3.869,0.252-5.78,0.451C260.185,414.446,257.877,409.419,258.91,408.385z M258.487,430.954
			c-5.937-1.266-7.522-2.726-7.522-3.389c0-0.663,1.584-2.122,7.522-3.388c1.935-0.413,4.108-0.756,6.453-1.026
			c1.213,1.495,2.488,2.983,3.774,4.414c-1.286,1.432-2.561,2.919-3.774,4.414C262.595,431.71,260.422,431.366,258.487,430.954z
			 M258.91,446.745c-1.033-1.033,1.275-6.061,6.769-13c1.911,0.199,3.863,0.348,5.78,0.451c0.103,1.917,0.252,3.869,0.451,5.78
			C264.971,445.47,259.944,447.777,258.91,446.745z M281.478,447.167c-1.266,5.938-2.726,7.522-3.389,7.522
			c-0.663,0-2.122-1.584-3.389-7.522c-0.413-1.934-0.756-4.107-1.025-6.451c1.495-1.212,2.982-2.49,4.414-3.775
			c1.432,1.285,2.919,2.563,4.414,3.775C282.234,443.06,281.891,445.233,281.478,447.167z M297.27,446.745
			c-1.035,1.035-6.062-1.274-13.001-6.768c0.199-1.911,0.348-3.863,0.451-5.781c1.917-0.103,3.869-0.252,5.78-0.451
			C295.994,440.684,298.303,445.712,297.27,446.745z M297.692,430.954c-1.935,0.413-4.108,0.756-6.453,1.026
			c-1.213-1.495-2.488-2.983-3.774-4.414c1.286-1.432,2.561-2.919,3.774-4.414c2.345,0.27,4.518,0.613,6.453,1.026
			c5.938,1.266,7.522,2.726,7.522,3.388C305.214,428.228,303.63,429.688,297.692,430.954z"/>
		<path style="fill:#241F33;" d="M278.09,424.42c-1.737,0-3.146,1.408-3.146,3.145c0,1.737,1.408,3.146,3.146,3.146
			c1.737,0,3.146-1.408,3.146-3.146C281.235,425.828,279.827,424.42,278.09,424.42z"/>
	</g>
	<g>
		
			<linearGradient id="SVGID_00000181064882471449867230000013967087687878031507_" gradientUnits="userSpaceOnUse" x1="284.3937" y1="74.5175" x2="368.9124" y2="74.5175">
			<stop  offset="0" style="stop-color:#5CE596"/>
			<stop  offset="1" style="stop-color:#C5FF81"/>
		</linearGradient>
		<path style="fill:url(#SVGID_00000181064882471449867230000013967087687878031507_);" d="M368.912,74.517
			c0-4.549-9.736-7.299-21.182-8.731c7.081-9.106,12.021-17.934,8.805-21.151c-3.217-3.217-12.044,1.723-21.151,8.804
			c-1.432-11.446-4.182-21.182-8.732-21.182c-4.549,0-7.298,9.735-8.731,21.181c-9.106-7.082-17.934-12.022-21.151-8.803
			c-3.216,3.216,1.724,12.044,8.805,21.151c-11.447,1.432-21.182,4.182-21.182,8.731c0,4.549,9.735,7.299,21.182,8.731
			c-7.081,9.106-12.021,17.934-8.805,21.151c0.689,0.689,1.634,1.003,2.785,1.003c4.225,0,11.209-4.241,18.366-9.806
			c1.432,11.446,4.182,21.18,8.731,21.18c4.549,0,7.299-9.734,8.731-21.18c7.157,5.565,14.141,9.806,18.365,9.806
			c1.151,0,2.097-0.315,2.785-1.004c3.216-3.216-1.724-12.044-8.805-21.151C359.177,81.816,368.912,79.066,368.912,74.517z
			 M353.658,46.041c0.506,0,0.883,0.117,1.118,0.353c1.515,1.515-1.87,8.887-9.926,19.062c-2.802-0.292-5.664-0.51-8.475-0.661
			c-0.151-2.812-0.369-5.674-0.661-8.477C344.31,49.513,350.905,46.041,353.658,46.041z M334.156,74.517
			c0,1.04-0.011,2.071-0.027,3.096c-0.708,0.731-1.427,1.466-2.171,2.209c-0.743,0.743-1.478,1.462-2.209,2.171
			c-1.026,0.016-2.057,0.027-3.097,0.027c-1.039,0-2.07-0.011-3.096-0.027c-0.731-0.708-1.466-1.427-2.209-2.171
			c-0.743-0.743-1.462-1.478-2.171-2.209c-0.016-1.026-0.027-2.057-0.027-3.096c0-1.04,0.011-2.07,0.027-3.096
			c0.708-0.731,1.427-1.466,2.171-2.209c0.743-0.743,1.478-1.463,2.208-2.17c1.026-0.016,2.057-0.027,3.097-0.027
			c1.04,0,2.072,0.011,3.098,0.027c0.73,0.708,1.465,1.428,2.208,2.17c0.743,0.743,1.462,1.478,2.171,2.209
			C334.145,72.447,334.156,73.478,334.156,74.517z M333.717,67.454c-0.105-0.105-0.216-0.213-0.323-0.319
			c0.207,0.007,0.413,0.015,0.619,0.023c0.008,0.206,0.015,0.413,0.023,0.619C333.93,67.67,333.822,67.559,333.717,67.454z
			 M330.768,64.577c-0.744-0.709-1.505-1.424-2.283-2.141c1.7-1.528,3.351-2.952,4.944-4.269c0.196,2.1,0.356,4.274,0.474,6.511
			C332.843,64.636,331.796,64.602,330.768,64.577z M327.106,64.529c-0.151,0-0.303-0.001-0.453-0.001
			c-0.15,0-0.301,0.001-0.452,0.001c0.151-0.141,0.302-0.282,0.453-0.421C326.803,64.247,326.955,64.388,327.106,64.529z
			 M322.539,64.577c-1.029,0.024-2.076,0.058-3.135,0.101c0.118-2.237,0.278-4.411,0.474-6.512c1.593,1.317,3.245,2.741,4.944,4.269
			C324.043,63.154,323.282,63.868,322.539,64.577z M319.912,67.134c-0.107,0.106-0.217,0.214-0.323,0.319
			c-0.105,0.106-0.213,0.216-0.32,0.323c0.007-0.207,0.015-0.413,0.023-0.619C319.498,67.149,319.705,67.142,319.912,67.134z
			 M316.713,70.403c-0.709,0.743-1.422,1.504-2.139,2.281c-1.527-1.699-2.954-3.351-4.271-4.943c2.1-0.196,4.274-0.356,6.511-0.474
			C316.771,68.327,316.737,69.375,316.713,70.403z M316.664,74.063c0,0.152-0.001,0.304-0.001,0.455
			c0,0.151,0.001,0.303,0.001,0.455c-0.142-0.153-0.279-0.303-0.419-0.455C316.385,74.366,316.522,74.215,316.664,74.063z
			 M316.713,78.632c0.024,1.029,0.058,2.076,0.101,3.135c-2.237-0.118-4.411-0.277-6.511-0.474c1.316-1.592,2.744-3.244,4.271-4.943
			C315.29,77.128,316.004,77.889,316.713,78.632z M319.27,81.259c0.106,0.107,0.214,0.217,0.32,0.323
			c0.106,0.106,0.216,0.213,0.323,0.32c-0.207-0.007-0.413-0.015-0.619-0.023C319.284,81.672,319.277,81.465,319.27,81.259z
			 M322.537,84.458c0.743,0.709,1.505,1.424,2.282,2.141c-1.698,1.526-3.35,2.954-4.942,4.27c-0.196-2.1-0.356-4.274-0.474-6.512
			C320.462,84.399,321.509,84.433,322.537,84.458z M326.198,84.506c0.152,0.001,0.305,0.001,0.455,0.001
			c0.151,0,0.303-0.001,0.455-0.001c-0.153,0.142-0.303,0.279-0.455,0.42C326.501,84.785,326.35,84.648,326.198,84.506z
			 M330.769,84.458c1.028-0.024,2.075-0.058,3.133-0.101c-0.118,2.237-0.277,4.412-0.474,6.512c-1.591-1.316-3.244-2.743-4.942-4.27
			C329.265,85.881,330.026,85.166,330.769,84.458z M333.395,81.901c0.107-0.106,0.217-0.214,0.322-0.32s0.214-0.216,0.319-0.323
			c-0.007,0.207-0.015,0.413-0.023,0.619C333.808,81.886,333.601,81.894,333.395,81.901z M336.593,78.632
			c0.709-0.743,1.422-1.504,2.139-2.281c1.527,1.699,2.954,3.351,4.271,4.943c-2.1,0.196-4.274,0.356-6.511,0.474
			C336.535,80.708,336.569,79.66,336.593,78.632z M336.642,74.972c0-0.152,0.001-0.304,0.001-0.455c0-0.15-0.001-0.303-0.001-0.455
			c0.142,0.153,0.279,0.303,0.419,0.455C336.921,74.669,336.784,74.82,336.642,74.972z M336.593,70.403
			c-0.024-1.028-0.058-2.076-0.101-3.135c2.237,0.118,4.411,0.277,6.511,0.474c-1.316,1.592-2.744,3.244-4.271,4.943
			C338.016,71.907,337.302,71.146,336.593,70.403z M321.684,45.774c1.856-8.706,3.996-11.029,4.968-11.029
			c0.972,0,3.113,2.323,4.969,11.029c0.605,2.837,1.109,6.023,1.504,9.462c-2.192,1.778-4.373,3.649-6.472,5.533
			c-2.1-1.885-4.281-3.756-6.473-5.534C320.576,51.797,321.079,48.611,321.684,45.774z M298.529,46.394
			c0.236-0.235,0.612-0.353,1.118-0.353c2.754,0,9.349,3.471,17.945,10.277c-0.292,2.803-0.51,5.665-0.661,8.477
			c-2.812,0.152-5.673,0.369-8.475,0.661C300.399,55.281,297.014,47.909,298.529,46.394z M297.909,79.486
			c-8.706-1.856-11.029-3.997-11.029-4.969s2.323-3.112,11.029-4.968c2.837-0.605,6.024-1.109,9.462-1.504
			c1.778,2.192,3.649,4.373,5.534,6.473c-1.885,2.099-3.755,4.28-5.534,6.473C303.933,80.595,300.746,80.091,297.909,79.486z
			 M298.529,102.641c-1.515-1.515,1.87-8.887,9.926-19.063c2.802,0.292,5.664,0.51,8.475,0.661c0.151,2.812,0.369,5.674,0.661,8.476
			C307.417,100.771,300.046,104.155,298.529,102.641z M331.622,103.261c-1.856,8.706-3.997,11.029-4.969,11.029
			c-0.972,0-3.112-2.323-4.968-11.029c-0.605-2.836-1.108-6.022-1.504-9.46c2.192-1.778,4.373-3.651,6.472-5.535
			c2.099,1.885,4.28,3.757,6.473,5.535C332.73,97.239,332.227,100.425,331.622,103.261z M354.777,102.641
			c-1.518,1.517-8.888-1.868-19.063-9.924c0.292-2.802,0.51-5.665,0.661-8.477c2.811-0.151,5.673-0.369,8.475-0.661
			C352.907,93.755,356.292,101.126,354.777,102.641z M355.397,79.486c-2.837,0.605-6.024,1.109-9.463,1.504
			c-1.778-2.192-3.648-4.373-5.533-6.473c1.885-2.1,3.755-4.28,5.534-6.473c3.439,0.395,6.625,0.899,9.462,1.504
			c8.706,1.856,11.029,3.996,11.029,4.968S364.103,77.63,355.397,79.486z"/>
		<path style="fill:#241F33;" d="M326.653,69.905c-2.547,0-4.612,2.065-4.612,4.612c0,2.547,2.065,4.612,4.612,4.612
			c2.547,0,4.612-2.065,4.612-4.612C331.265,71.97,329.2,69.905,326.653,69.905z"/>
	</g>
</g>
</svg>
